<svg width="21" height="22" viewBox="0 0 21 22" fill="none" xmlns="http://www.w3.org/2000/svg">
<path d="M11.6027 0.00258249C11.3797 0.0106608 11.1582 0.0431362 10.942 0.0998482C10.6483 0.191621 10.3625 0.307785 10.0872 0.447218C9.84591 0.553691 9.61138 0.678909 9.3814 0.820117C8.93102 1.07313 8.49654 1.35476 8.08018 1.66335C7.4036 2.16375 6.75867 2.68478 6.12945 3.23832C5.53638 3.76179 4.96128 4.3061 4.39073 4.85965C4.18325 5.05886 3.98034 5.26033 3.77741 5.46423C3.96241 5.1755 4.15401 4.88905 4.35252 4.60486C4.87571 3.92852 5.42379 3.27306 5.94239 2.58977C6.08224 2.40219 6.22649 2.21913 6.36414 2.02928L6.5603 1.7559C6.60986 1.68643 6.6528 1.62164 6.70015 1.552C6.7475 1.48253 6.75646 1.457 6.78352 1.41079C6.82867 1.30658 6.87366 1.20237 6.9166 1.09573C6.9789 0.897976 6.95845 0.68228 6.86029 0.5005C6.7497 0.319705 6.55622 0.210325 6.34825 0.21097C6.15838 0.222926 5.97276 0.274141 5.80255 0.361551C4.97938 0.690503 4.32326 1.32048 3.61506 1.84622C3.26332 2.1057 2.90687 2.36502 2.54616 2.6153C2.32059 2.76814 2.09518 2.92341 1.86958 3.06461C1.95751 2.90481 2.05001 2.74729 2.15368 2.6014C2.22352 2.51108 2.29572 2.42529 2.37926 2.33966C2.5545 2.15369 2.5545 1.8585 2.37926 1.67254C2.29431 1.58271 2.17759 1.53198 2.05567 1.53198C1.93376 1.53198 1.81688 1.58271 1.73194 1.67254C1.37926 2.08711 1.06369 2.53369 0.789368 3.00661L0.539096 3.40746C0.38478 3.60215 0.315563 3.85338 0.34734 4.10221C0.532334 4.79713 1.35096 4.51678 1.79518 4.3339C2.16296 4.15699 2.51924 3.95583 2.86186 3.73172C3.05362 3.61588 3.24522 3.50003 3.43696 3.37967C3.12581 3.73398 2.82365 4.09299 2.53499 4.4683C2.16972 4.93151 1.8427 5.43885 1.52239 5.93907H1.52223C1.23955 6.3876 0.980475 6.85147 0.746544 7.32874C0.574924 7.66771 0.424381 8.01749 0.295395 8.37568C0.181664 8.67006 0.154135 8.99205 0.216586 9.30226C0.27762 9.51698 0.405039 9.70569 0.579491 9.83979C0.753942 9.97389 0.966151 10.0461 1.18403 10.0458C1.58312 10.0458 1.90576 9.791 2.19663 9.54784C2.3478 9.42279 2.48308 9.28142 2.62515 9.14942L3.25876 8.55418C3.65108 8.18823 4.039 7.81534 4.42692 7.4447C5.46876 6.4488 6.54756 5.49988 7.66301 4.59804C7.81638 4.47767 7.97196 4.36635 8.12753 4.24598C7.47579 4.9409 6.84878 5.67974 6.21517 6.40245C5.53859 7.18765 4.81469 7.959 4.16972 8.78123C3.80586 9.24443 3.44658 9.70764 3.09168 10.1711C2.8661 10.4536 2.66993 10.7409 2.46245 11.0304C2.28879 11.2621 2.13321 11.5284 1.97087 11.7787C1.69795 12.1979 1.44985 12.6403 1.2177 13.0874L1.21785 13.087C0.922276 13.6498 0.662404 14.2316 0.439829 14.8287C0.270726 15.2466 0.147398 15.6825 0.0722051 16.1282C0.0358675 16.3481 0.0117992 16.5701 0 16.7929C0.000786521 17.1161 0.0781809 17.434 0.225579 17.7195C0.37329 17.9662 0.576845 18.1727 0.818641 18.3217C0.960686 18.3865 1.1051 18.449 1.24933 18.5093H1.24949C1.42158 18.5592 1.60154 18.5749 1.77945 18.5556C2.57998 18.5139 3.21142 17.9649 3.73917 17.3975C3.9196 17.2006 4.10679 17.0038 4.28487 16.8045C5.78683 15.1207 7.29097 13.4436 8.82898 11.799C9.66334 10.9095 10.5136 10.0379 11.3795 9.18398C12.2117 8.37322 13.0912 7.62292 13.9864 6.88631C14.2637 6.66852 14.5412 6.45313 14.8231 6.24248C15.105 6.03163 15.3734 5.83484 15.6575 5.64257L15.3915 5.91336C14.6743 6.68695 13.9595 7.46297 13.2648 8.2574C11.7448 10.0015 10.2046 11.7481 8.81776 13.6079C8.12781 14.4907 7.50443 15.426 6.95276 16.4059C6.81292 16.6607 6.67543 16.9178 6.54015 17.1726C6.40487 17.4274 6.28076 17.7193 6.14547 17.9903C5.98958 18.3322 5.85414 18.6833 5.73963 19.042C5.61677 19.4433 5.5603 19.8629 5.57272 20.2835C5.57257 20.7585 5.74749 21.216 6.06209 21.5644C6.26612 21.7599 6.51702 21.8962 6.78917 21.9597C7.06132 22.0232 7.3451 22.0114 7.61125 21.9257C7.97353 21.7875 8.30499 21.5755 8.58559 21.3027C8.7322 21.1846 8.86072 21.0387 8.99599 20.9067L9.65888 20.251C10.0377 19.8758 10.4136 19.4997 10.7865 19.1229C11.5577 18.3655 12.3336 17.6175 13.1364 16.8994C13.7363 16.3621 14.3497 15.8363 14.9541 15.3012C15.36 14.9422 15.766 14.5854 16.181 14.2356H16.1808C15.4339 14.988 14.7441 15.798 14.1174 16.6585C13.9024 16.9361 13.7043 17.2269 13.5242 17.5294C13.3529 17.8331 13.2095 18.1527 13.0959 18.4837C13.0577 18.5959 13.0298 18.7114 13.0124 18.8289C12.9724 19.0289 12.9961 19.2367 13.08 19.4218C13.1418 19.5543 13.2373 19.6672 13.3564 19.7488C13.4755 19.8303 13.6137 19.8774 13.7566 19.885C14.046 19.8892 14.3317 19.8175 14.5865 19.6766C14.9044 19.5113 15.211 19.3241 15.5042 19.116C16.4062 18.5392 17.2903 17.9578 18.2104 17.4366C18.6613 17.1841 19.1123 16.9456 19.5635 16.7417C19.6739 16.6953 19.7891 16.6514 19.895 16.6166L19.8951 16.6168C20.0556 16.6898 20.2428 16.6606 20.3749 16.5418C20.507 16.4231 20.5601 16.2363 20.5107 16.0633C20.4617 15.8497 20.3118 15.6758 20.1116 15.5999C19.8416 15.5251 19.5536 15.5677 19.3154 15.718C19.0719 15.8338 18.8328 15.9497 18.5961 16.084C18.0999 16.3504 17.6151 16.6399 17.1279 16.927C16.262 17.4366 15.4117 17.9879 14.5143 18.4372V18.4374C14.782 17.9482 15.0899 17.4833 15.4344 17.0476C15.7636 16.626 16.0929 16.2068 16.4492 15.8108C16.8055 15.4148 17.2204 15.0186 17.6219 14.6365C18.0233 14.2544 18.3999 13.8674 18.7878 13.4783C19.0134 13.2606 19.2388 13.0546 19.4644 12.846H19.4643C19.6793 12.6485 19.8641 12.419 20.0123 12.165C20.0928 12.0242 20.1378 11.8649 20.1432 11.7017C20.1433 11.4688 20.0634 11.2432 19.9176 11.0647C19.7328 10.849 19.4553 10.7422 19.178 10.7799C18.9584 10.8133 18.7438 10.8755 18.5398 10.9652C18.2665 11.0737 18.0007 11.2006 17.7436 11.345C17.2484 11.6113 16.768 11.906 16.3049 12.2275C15.4147 12.892 14.5616 13.6073 13.7498 14.3701C12.9604 15.065 12.1712 15.7599 11.3593 16.4407C10.6828 17.0267 10.0062 17.6174 9.30036 18.1871C9.47859 17.8721 9.66342 17.5641 9.85283 17.2607C10.3038 16.5264 10.8135 15.8362 11.3254 15.1459C11.9884 14.3029 12.6536 13.4643 13.3324 12.6352C14.0112 11.806 14.7194 10.9281 15.432 10.0872C16.1446 9.24642 16.9227 8.36166 17.6872 7.50924C18.4111 6.69624 19.1191 5.87157 19.8048 5.02155C19.9898 4.78986 20.1746 4.55834 20.3461 4.32664C20.4408 4.18995 20.5333 4.05568 20.6212 3.91431L20.6889 3.77762C20.7611 3.60781 20.8309 3.43865 20.8985 3.27028V3.27061C20.9514 3.047 20.9854 2.81919 21 2.58959C20.9928 2.28213 20.9155 1.98063 20.7746 1.70938C20.5295 1.20481 20.069 0.846783 19.5297 0.741269C19.3009 0.690213 19.0659 0.675513 18.8328 0.697161C18.5745 0.710087 18.3174 0.742564 18.0639 0.794588C17.6267 0.917056 17.2004 1.07733 16.7897 1.27397C16.4694 1.41292 16.1604 1.57739 15.8493 1.73718C15.6102 1.85755 15.3802 2.00813 15.148 2.14255C14.9157 2.27681 14.6722 2.44129 14.4354 2.5943C13.9978 2.87915 13.5874 3.18726 13.1657 3.50214C12.2004 4.24098 11.2781 5.03091 10.3692 5.83923C9.53947 6.58519 8.77715 7.39124 8.01499 8.20652C7.25267 9.02179 6.54923 9.80477 5.83205 10.62C6.25836 10.0062 6.70701 9.40633 7.15357 8.81114C7.09489 8.89225 7.03637 8.97093 6.97534 9.04283C7.61572 8.19281 8.272 7.35429 8.93284 6.52268C9.28458 6.08255 9.63866 5.64713 10.0063 5.22335C10.3739 4.79956 10.7145 4.40807 11.0573 3.99106C11.4752 3.48616 11.8751 2.96803 12.257 2.43695L12.2569 2.43678C12.4587 2.16341 12.6115 1.85516 12.7079 1.5265C12.7555 1.32292 12.7593 1.11094 12.719 0.905747C12.6868 0.70605 12.5963 0.521214 12.4598 0.375328C12.2454 0.135237 11.9426 -0.000966828 11.6253 5.16699e-06L11.6027 0.00258249ZM18.8667 11.4494C18.8563 11.4812 18.8434 11.5122 18.8285 11.5421C18.842 11.5121 18.8555 11.4796 18.8668 11.4495L18.8667 11.4494Z" fill="#5A62F1"/>
</svg>
