<svg width="15" height="16" viewBox="0 0 15 16" fill="none" xmlns="http://www.w3.org/2000/svg">
<path d="M8.28765 0.00187817C8.12832 0.00775331 7.97012 0.0313718 7.81574 0.0726168C7.60596 0.139361 7.40179 0.223843 7.20516 0.32525C7.03279 0.402684 6.86527 0.493752 6.701 0.596449C6.3793 0.780461 6.06896 0.985277 5.77156 1.20971C5.28829 1.57363 4.82762 1.95256 4.37818 2.35514C3.95456 2.73585 3.54377 3.13171 3.13624 3.53429C2.98803 3.67917 2.8431 3.8257 2.69815 3.97398C2.83029 3.764 2.96715 3.55568 3.10894 3.34899C3.48265 2.8571 3.87413 2.38041 4.24456 1.88347C4.34446 1.74704 4.44749 1.61391 4.54582 1.47584L4.68593 1.27702C4.72133 1.22649 4.752 1.17938 4.78582 1.12873C4.81964 1.0782 4.82605 1.05964 4.84537 1.02603C4.87762 0.950241 4.90976 0.874449 4.94043 0.796897C4.98493 0.653073 4.97032 0.496204 4.90021 0.364C4.82122 0.232513 4.68301 0.152963 4.53447 0.153433C4.39885 0.162128 4.26626 0.199376 4.14468 0.262946C3.5567 0.502184 3.08804 0.960346 2.58219 1.34271C2.33094 1.53142 2.07633 1.72001 1.81869 1.90203C1.65756 2.01319 1.49655 2.12611 1.33541 2.2288C1.39822 2.11259 1.46429 1.99803 1.53834 1.89193C1.58823 1.82624 1.6398 1.76385 1.69947 1.70157C1.82464 1.56632 1.82464 1.35164 1.69947 1.21639C1.63879 1.15106 1.55542 1.11417 1.46834 1.11417C1.38126 1.11417 1.29777 1.15106 1.2371 1.21639C0.985183 1.5179 0.759779 1.84268 0.563834 2.18663L0.385068 2.47816C0.274843 2.61975 0.225402 2.80246 0.2481 2.98343C0.380239 3.48882 0.964971 3.28493 1.28227 3.15193C1.54497 3.02326 1.79946 2.87697 2.04419 2.71398C2.18116 2.62973 2.31801 2.54548 2.45497 2.45794C2.23272 2.71562 2.01689 2.97672 1.81071 3.24967C1.5498 3.58655 1.31621 3.95552 1.08742 4.31933H1.08731C0.885396 4.64552 0.700339 4.98288 0.533246 5.32999C0.41066 5.57651 0.303129 5.8309 0.210997 6.0914C0.12976 6.3055 0.110096 6.53967 0.154704 6.76528C0.1983 6.92144 0.289314 7.05869 0.413922 7.15621C0.53853 7.25374 0.690108 7.30627 0.845736 7.30603C1.1308 7.30603 1.36125 7.12073 1.56902 6.94388C1.677 6.85294 1.77363 6.75012 1.8751 6.65412L2.32769 6.22122C2.60792 5.95507 2.885 5.68388 3.16209 5.41433C3.90626 4.69004 4.67683 3.99992 5.47358 3.34403C5.58313 3.25649 5.69426 3.17553 5.80538 3.08799C5.33985 3.59338 4.89199 4.13072 4.43941 4.65632C3.95613 5.22738 3.43906 5.78837 2.97837 6.38635C2.71847 6.72322 2.46184 7.0601 2.20834 7.39713C2.04721 7.60265 1.90709 7.81156 1.7589 8.02213C1.63485 8.19063 1.52372 8.38427 1.40777 8.56629C1.21282 8.87123 1.03561 9.19294 0.869783 9.51809L0.869895 9.51785C0.658769 9.92711 0.473145 10.3503 0.314164 10.7845C0.193376 11.0884 0.105284 11.4054 0.051575 11.7296C0.0256196 11.8895 0.00842802 12.051 0 12.213C0.000561801 12.448 0.0558435 12.6793 0.161128 12.8869C0.266636 13.0663 0.412032 13.2165 0.584743 13.3249C0.686205 13.372 0.789354 13.4174 0.89238 13.4613H0.892493C1.01542 13.4976 1.14396 13.509 1.27103 13.495C1.84284 13.4647 2.29387 13.0654 2.67083 12.6527C2.79971 12.5095 2.93342 12.3664 3.06062 12.2215C4.13345 10.9969 5.20784 9.77716 6.30641 8.58108C6.90239 7.93421 7.50969 7.30029 8.12825 6.67926C8.72264 6.08961 9.35086 5.54394 9.99029 5.00823C10.1884 4.84983 10.3866 4.69319 10.5879 4.53999C10.7893 4.38664 10.981 4.24352 11.1839 4.10369L10.9939 4.30063C10.4816 4.86323 9.97106 5.42761 9.47487 6.00538C8.38913 7.27384 7.289 8.54407 6.2984 9.89667C5.80558 10.5387 5.3603 11.2189 4.96626 11.9316C4.86637 12.1169 4.76817 12.3038 4.67154 12.4891C4.57491 12.6745 4.48625 12.8868 4.38962 13.0839C4.27827 13.3325 4.18153 13.5878 4.09973 13.8487C4.01198 14.1406 3.97164 14.4457 3.98052 14.7516C3.98041 15.0971 4.10535 15.4298 4.33006 15.6832C4.4758 15.8254 4.65502 15.9245 4.84941 15.9707C5.0438 16.0169 5.2465 16.0083 5.43661 15.9459C5.69538 15.8455 5.93214 15.6913 6.13257 15.4928C6.23729 15.407 6.32909 15.3008 6.42571 15.2048L6.8992 14.728C7.16976 14.4552 7.4383 14.1816 7.70461 13.9076C8.25551 13.3568 8.80968 12.8127 9.38316 12.2905C9.81161 11.8997 10.2498 11.5173 10.6815 11.1281C10.9714 10.867 11.2614 10.6076 11.5578 10.3532H11.5577C11.0242 10.9004 10.5315 11.4894 10.0839 12.1153C9.93027 12.3171 9.7888 12.5287 9.66017 12.7486C9.53781 12.9695 9.43533 13.202 9.3542 13.4427C9.3269 13.5243 9.30701 13.6083 9.29454 13.6937C9.266 13.8392 9.28296 13.9903 9.34285 14.125C9.38701 14.2213 9.45521 14.3034 9.54027 14.3628C9.62533 14.422 9.72409 14.4563 9.82612 14.4618C10.0329 14.4649 10.2369 14.4127 10.4189 14.3103C10.646 14.1901 10.865 14.0539 11.0744 13.9025C11.7187 13.483 12.3502 13.0602 13.0074 12.6812C13.3295 12.4975 13.6517 12.3241 13.9739 12.1758C14.0528 12.142 14.1351 12.1101 14.2107 12.0848L14.2108 12.0849C14.3254 12.138 14.4591 12.1168 14.5535 12.0304C14.6479 11.944 14.6858 11.8082 14.6505 11.6824C14.6155 11.527 14.5084 11.4006 14.3654 11.3454C14.1726 11.291 13.9669 11.322 13.7967 11.4313C13.6228 11.5155 13.452 11.5998 13.2829 11.6974C12.9285 11.8912 12.5822 12.1017 12.2342 12.3106C11.6157 12.6812 11.0084 13.0821 10.3674 13.4089V13.409C10.5586 13.0532 10.7785 12.7152 11.0246 12.3982C11.2597 12.0917 11.4949 11.7867 11.7494 11.4987C12.0039 11.2107 12.3003 10.9226 12.5871 10.6447C12.8738 10.3668 13.1428 10.0854 13.4199 9.80243C13.581 9.64404 13.742 9.49422 13.9032 9.34252H13.903C14.0566 9.19893 14.1887 9.03197 14.2945 8.84724C14.352 8.74489 14.3842 8.62903 14.388 8.51036C14.3881 8.34092 14.331 8.17688 14.2269 8.04705C14.0948 7.89018 13.8966 7.81251 13.6985 7.83989C13.5417 7.86421 13.3884 7.90945 13.2427 7.97467C13.0475 8.05363 12.8576 8.14587 12.674 8.25092C12.3203 8.44457 11.9771 8.65888 11.6463 8.89273C11.0105 9.37602 10.4011 9.89621 9.82125 10.451C9.25741 10.9564 8.69371 11.4617 8.11382 11.9569C7.63054 12.3831 7.14727 12.8127 6.64311 13.227C6.77042 12.9979 6.90244 12.7739 7.03774 12.5532C7.35987 12.0192 7.72391 11.5172 8.08954 11.0152C8.56315 10.4021 9.03831 9.79225 9.52317 9.18921C10.008 8.58618 10.5138 7.94768 11.0229 7.33616C11.5319 6.72467 12.0876 6.0812 12.6337 5.46126C13.1508 4.86999 13.6565 4.27023 14.1463 3.65204C14.2784 3.48353 14.4105 3.31516 14.5329 3.14664C14.6006 3.04724 14.6666 2.94959 14.7294 2.84677L14.7778 2.74736C14.8293 2.62387 14.8792 2.50084 14.9275 2.37839V2.37862C14.9653 2.216 14.9896 2.05032 15 1.88334C14.9948 1.65973 14.9397 1.44045 14.839 1.24318C14.6639 0.876224 14.335 0.615842 13.9498 0.539105C13.7864 0.501973 13.6185 0.491282 13.452 0.507027C13.2675 0.516427 13.0839 0.540047 12.9028 0.577883C12.5905 0.66695 12.286 0.783514 11.9926 0.926522C11.7638 1.02758 11.5432 1.14719 11.3209 1.2634C11.1501 1.35094 10.9859 1.46046 10.82 1.55822C10.654 1.65587 10.4801 1.77549 10.311 1.88676C9.99843 2.09392 9.70526 2.31801 9.40404 2.54701C8.71458 3.08435 8.05581 3.65884 7.4066 4.24672C6.8139 4.78923 6.26939 5.37545 5.72499 5.96838C5.18048 6.5613 4.67802 7.13074 4.16575 7.72367C4.47025 7.27726 4.79072 6.84097 5.10969 6.4081C5.06778 6.46709 5.02598 6.52431 4.98238 6.5766C5.4398 5.95841 5.90857 5.34857 6.3806 4.74376C6.63184 4.42367 6.88476 4.10701 7.14735 3.7988C7.40994 3.49059 7.6532 3.20587 7.89805 2.90259C8.19659 2.53539 8.48223 2.15857 8.75503 1.77232L8.75492 1.77221C8.89908 1.57339 9.00818 1.34921 9.07705 1.11018C9.1111 0.962126 9.11379 0.807958 9.08503 0.658725C9.06199 0.513491 8.99738 0.379064 8.89986 0.272966C8.74671 0.0983538 8.5304 -0.000703148 8.30377 3.75781e-06L8.28765 0.00187817ZM13.4762 8.32682C13.4688 8.34997 13.4596 8.37253 13.4489 8.39427C13.4586 8.37241 13.4682 8.34879 13.4763 8.32694L13.4762 8.32682Z" fill="#5A62F1"/>
</svg>
