<svg width="46" height="54" viewBox="0 0 46 54" fill="none" xmlns="http://www.w3.org/2000/svg">
<path d="M44.6481 6.05215H41.399L40.3965 1.2516C40.3548 1.04992 40.1683 0.905762 39.9535 0.905762H4.61819C4.40808 0.905762 4.22553 1.0432 4.17832 1.23667L2.99247 6.05233H0.452466C0.203017 6.05233 0 6.24429 0 6.48182V12.2714C0 12.5081 0.202232 12.7009 0.452466 12.7009H2.79889L3.37961 17.8473H1.85933C1.73264 17.8473 1.61224 17.8974 1.52649 17.9855C1.44072 18.0736 1.39822 18.1924 1.40924 18.3112L3.66299 43.8293C3.68188 44.0512 3.8786 44.2222 4.1131 44.2222H6.35819L7.33157 52.8458C7.33236 52.8533 7.33472 52.86 7.33629 52.8675C7.33865 52.8802 7.34102 52.8929 7.34416 52.9063C7.34731 52.9205 7.35203 52.934 7.35754 52.9482C7.36226 52.9601 7.3662 52.9721 7.37249 52.9825C7.37957 52.9967 7.38744 53.0094 7.39531 53.0214C7.40239 53.0318 7.4079 53.0415 7.41577 53.0512C7.42443 53.0632 7.43466 53.0751 7.44646 53.0856C7.45433 53.0938 7.4622 53.1028 7.47164 53.111C7.48266 53.1215 7.49525 53.1304 7.50784 53.1401C7.51807 53.1476 7.52672 53.1551 7.53695 53.1603C7.55033 53.1685 7.56528 53.1752 7.57944 53.1827C7.58967 53.1879 7.60069 53.1932 7.61092 53.1977C7.62823 53.2044 7.64554 53.2081 7.66364 53.2141C7.6723 53.2163 7.68174 53.2193 7.69197 53.2216C7.7203 53.2268 7.74941 53.2298 7.77853 53.2298H36.3675C36.3966 53.2298 36.4265 53.2268 36.454 53.2216C36.4643 53.2193 36.4729 53.2163 36.4824 53.2141C36.5005 53.2096 36.5186 53.2044 36.5351 53.1977C36.5461 53.1932 36.5563 53.1879 36.5666 53.1827C36.5815 53.176 36.5957 53.1685 36.6091 53.1603C36.6193 53.1536 36.6279 53.1461 36.6382 53.1401C36.6508 53.1304 36.6634 53.1222 36.6744 53.111C36.683 53.1028 36.6917 53.0938 36.6996 53.0856C36.7098 53.0751 36.72 53.0632 36.7302 53.0512C36.7373 53.0415 36.7436 53.0318 36.7507 53.0214C36.7586 53.0087 36.7664 52.996 36.7735 52.9818C36.779 52.9713 36.7837 52.9594 36.7885 52.9474C36.794 52.9332 36.7987 52.9198 36.8018 52.9056C36.805 52.8929 36.8074 52.8802 36.8097 52.8668C36.8105 52.8593 36.8129 52.8526 36.8144 52.8451L37.7878 44.2215H39.9785C40.213 44.2215 40.4082 44.0512 40.4286 43.8293L42.7382 18.3112C42.7492 18.1909 42.7067 18.0736 42.6209 17.9848C42.5352 17.8959 42.4148 17.8458 42.2881 17.8458L40.7733 17.8451L41.3541 12.6986H44.6481C44.8975 12.6986 45.1005 12.5067 45.1005 12.2691V6.47958C45.1005 6.24354 44.8975 6.05232 44.6489 6.05232L44.6481 6.05215ZM4.97571 1.76311H39.5818L40.445 5.89746H3.95745L4.97571 1.76311ZM35.9639 52.3711H8.18673L7.26607 44.2219H36.8844L35.9639 52.3711ZM41.8011 18.7051L39.5695 43.3647H4.5283L2.35029 18.7051H41.8011ZM3.70601 12.7005H40.4454L39.8647 17.8469H4.28762L3.70601 12.7005ZM44.1963 11.843H0.903923V6.91084H44.1963V11.843Z" fill="#5A62F1"/>
<path d="M23.0909 37.141C23.8967 38.2748 24.9983 39.1241 26.1921 39.5343C26.7012 39.709 27.2033 39.7957 27.6801 39.7957C28.3569 39.7957 28.9879 39.6209 29.527 39.2766C31.3895 38.0837 31.5351 35.1841 29.8496 32.8132C28.1641 30.4422 25.2778 29.484 23.4137 30.6776C21.5511 31.8705 21.4054 34.77 23.0909 37.141ZM29.2964 33.1657C30.6876 35.1234 30.7136 37.4547 29.416 38.5564L24.0769 31.0443C24.442 30.874 24.8441 30.7896 25.2659 30.7896C26.65 30.7896 28.2301 31.6665 29.2964 33.1657ZM23.523 31.3969L28.8645 38.9113C28.1704 39.2347 27.3159 39.2474 26.4187 38.9404C25.3564 38.5751 24.3713 37.8118 23.6434 36.7876C22.2514 34.8299 22.2254 32.4985 23.523 31.3969Z" fill="#5A62F1"/>
<path d="M17.1694 32.3866C17.3677 32.4232 17.5675 32.4411 17.7674 32.4411C18.6629 32.4411 19.56 32.0774 20.3437 31.3864C21.273 30.5663 21.9379 29.3742 22.2118 28.0326C22.4872 26.6896 22.34 25.3504 21.8026 24.2591C21.2463 23.135 20.3413 22.4045 19.2531 22.2028C18.1633 22.0003 17.0364 22.3581 16.0788 23.2029C15.1479 24.0231 14.4845 25.2151 14.2107 26.5567C13.6347 29.3646 14.962 31.9795 17.1694 32.3866ZM21.1983 24.5265C21.6775 25.4976 21.8049 26.6994 21.5571 27.9117C21.3092 29.124 20.7167 30.1929 19.8897 30.9226C19.1917 31.5381 18.3985 31.8444 17.6266 31.804L19.4475 22.9041C20.1801 23.1417 20.7946 23.7071 21.1983 24.5265ZM14.863 26.6777C15.1109 25.4655 15.7034 24.3965 16.5305 23.6668C17.1883 23.0864 17.928 22.7809 18.6567 22.7809C18.7015 22.7809 18.7456 22.7906 18.7913 22.7929L16.9728 31.683C15.3258 31.1505 14.3894 28.9947 14.863 26.6777Z" fill="#5A62F1"/>
</svg>
