<svg width="124" height="42" viewBox="0 0 124 42" fill="none" xmlns="http://www.w3.org/2000/svg">
<path d="M6.91559 38.4182C4.97759 38.4182 3.45126 37.7659 2.33659 36.4612C1.23459 35.1566 0.683594 33.4592 0.683594 31.3692C0.683594 29.3046 1.25359 27.6136 2.39359 26.2962C3.53359 24.9662 5.10426 24.3012 7.10559 24.3012C8.52426 24.3012 9.70859 24.6622 10.6586 25.3842C11.6213 26.1062 12.2229 27.1449 12.4636 28.5002H11.1526C10.9499 27.4996 10.4876 26.7332 9.76559 26.2012C9.04359 25.6692 8.15693 25.4032 7.10559 25.4032C5.43359 25.4032 4.16693 25.9606 3.30559 27.0752C2.44426 28.1899 2.01359 29.6212 2.01359 31.3692C2.01359 33.1046 2.44426 34.5296 3.30559 35.6442C4.16693 36.7462 5.37659 37.2972 6.93459 37.2972C8.41659 37.2972 9.53126 36.8666 10.2786 36.0052C11.0386 35.1312 11.4186 34.0546 11.4186 32.7752V32.3002H7.04859V31.1792H12.6726V38.1522H11.7796L11.5136 35.9862H11.4566C10.4179 37.6076 8.90426 38.4182 6.91559 38.4182Z" fill="white"/>
<path d="M18.7465 37.4112C19.7978 37.4112 20.6148 37.0186 21.1975 36.2332C21.7802 35.4479 22.0715 34.4536 22.0715 33.2502C22.0715 32.0469 21.7802 31.0526 21.1975 30.2672C20.6148 29.4819 19.7978 29.0892 18.7465 29.0892C17.6825 29.0892 16.8592 29.4819 16.2765 30.2672C15.6938 31.0526 15.4025 32.0469 15.4025 33.2502C15.4025 34.4536 15.6938 35.4479 16.2765 36.2332C16.8592 37.0186 17.6825 37.4112 18.7465 37.4112ZM18.7465 38.3992C17.3532 38.3992 16.2448 37.9179 15.4215 36.9552C14.5982 35.9799 14.1865 34.7449 14.1865 33.2502C14.1865 31.7556 14.5982 30.5269 15.4215 29.5642C16.2448 28.5889 17.3532 28.1012 18.7465 28.1012C20.1272 28.1012 21.2228 28.5889 22.0335 29.5642C22.8568 30.5269 23.2685 31.7556 23.2685 33.2502C23.2685 34.7449 22.8568 35.9799 22.0335 36.9552C21.2228 37.9179 20.1272 38.3992 18.7465 38.3992Z" fill="white"/>
<path d="M28.8031 37.4112C29.8545 37.4112 30.6715 37.0186 31.2541 36.2332C31.8368 35.4479 32.1281 34.4536 32.1281 33.2502C32.1281 32.0469 31.8368 31.0526 31.2541 30.2672C30.6715 29.4819 29.8545 29.0892 28.8031 29.0892C27.7391 29.0892 26.9158 29.4819 26.3331 30.2672C25.7505 31.0526 25.4591 32.0469 25.4591 33.2502C25.4591 34.4536 25.7505 35.4479 26.3331 36.2332C26.9158 37.0186 27.7391 37.4112 28.8031 37.4112ZM28.8031 38.3992C27.4098 38.3992 26.3015 37.9179 25.4781 36.9552C24.6548 35.9799 24.2431 34.7449 24.2431 33.2502C24.2431 31.7556 24.6548 30.5269 25.4781 29.5642C26.3015 28.5889 27.4098 28.1012 28.8031 28.1012C30.1838 28.1012 31.2795 28.5889 32.0901 29.5642C32.9135 30.5269 33.3251 31.7556 33.3251 33.2502C33.3251 34.7449 32.9135 35.9799 32.0901 36.9552C31.2795 37.9179 30.1838 38.3992 28.8031 38.3992Z" fill="white"/>
<path d="M38.6508 41.5912C37.4855 41.5912 36.5608 41.3506 35.8768 40.8692C35.1928 40.4006 34.8065 39.7862 34.7178 39.0262H35.8578C36.0478 40.0902 36.9661 40.6222 38.6128 40.6222C39.6388 40.6222 40.4051 40.3752 40.9118 39.8812C41.4311 39.3872 41.6908 38.6969 41.6908 37.8102V36.2522H41.6338C40.8865 37.3922 39.8478 37.9622 38.5178 37.9622C37.2385 37.9622 36.2125 37.5126 35.4398 36.6132C34.6798 35.7012 34.2998 34.5169 34.2998 33.0602C34.2998 31.5276 34.7051 30.3242 35.5158 29.4502C36.3265 28.5636 37.3271 28.1202 38.5178 28.1202C39.8985 28.1202 40.9371 28.6966 41.6338 29.8492H41.6908V28.3292H42.8498V37.7722C42.8498 38.8616 42.5458 39.7419 41.9378 40.4132C41.1905 41.1986 40.0948 41.5912 38.6508 41.5912ZM38.5748 36.9742C39.6388 36.9742 40.4368 36.6259 40.9688 35.9292C41.5008 35.2199 41.7668 34.2572 41.7668 33.0412C41.7668 31.8379 41.4945 30.8816 40.9498 30.1722C40.4178 29.4629 39.6325 29.1082 38.5938 29.1082C37.6311 29.1082 36.8775 29.4692 36.3328 30.1912C35.7881 30.9006 35.5158 31.8632 35.5158 33.0792C35.5158 34.2446 35.7755 35.1882 36.2948 35.9102C36.8141 36.6196 37.5741 36.9742 38.5748 36.9742Z" fill="white"/>
<path d="M44.8893 38.1522V24.5672H46.0673V38.1522H44.8893Z" fill="white"/>
<path d="M52.1639 38.3992C50.7326 38.3992 49.6116 37.9242 48.8009 36.9742C47.9903 36.0116 47.5849 34.7702 47.5849 33.2502C47.5849 31.7556 47.9966 30.5269 48.8199 29.5642C49.6433 28.5889 50.7263 28.1012 52.0689 28.1012C52.8289 28.1012 53.4876 28.2469 54.0449 28.5382C54.6149 28.8296 55.0583 29.2349 55.3749 29.7542C55.6916 30.2736 55.9196 30.8436 56.0589 31.4642C56.2109 32.0722 56.2869 32.7372 56.2869 33.4592H48.8009C48.8263 34.6246 49.1239 35.5746 49.6939 36.3092C50.2639 37.0312 51.0873 37.3922 52.1639 37.3922C53.6586 37.3922 54.6149 36.6576 55.0329 35.1882H56.1729C55.9576 36.1762 55.5016 36.9616 54.8049 37.5442C54.1209 38.1142 53.2406 38.3992 52.1639 38.3992ZM48.8199 32.5282H55.0519C55.0266 31.5022 54.7606 30.6726 54.2539 30.0392C53.7599 29.3932 53.0316 29.0702 52.0689 29.0702C51.1189 29.0702 50.3653 29.3869 49.8079 30.0202C49.2633 30.6536 48.9339 31.4896 48.8199 32.5282Z" fill="white"/>
<path d="M60.8318 38.1522V24.5672H66.8928C68.1088 24.5672 69.0525 24.8966 69.7238 25.5552C70.4078 26.2012 70.7498 27.0942 70.7498 28.2342C70.7498 29.9316 69.9898 31.0209 68.4698 31.5022V31.5592C69.1538 31.7872 69.6351 32.1799 69.9138 32.7372C70.2051 33.2819 70.3761 34.0926 70.4268 35.1692C70.5028 36.8919 70.6991 37.8609 71.0158 38.0762V38.1522H69.6478C69.4958 38.0509 69.3881 37.8102 69.3248 37.4302C69.2741 37.0502 69.2171 36.2776 69.1538 35.1122C69.1031 33.9596 68.8561 33.1679 68.4128 32.7372C67.9821 32.3066 67.2601 32.0912 66.2468 32.0912H62.1048V38.1522H60.8318ZM62.1048 31.0082H66.4558C67.4311 31.0082 68.1721 30.7802 68.6788 30.3242C69.1855 29.8556 69.4388 29.1969 69.4388 28.3482C69.4388 27.4742 69.2171 26.8156 68.7738 26.3722C68.3305 25.9162 67.6148 25.6882 66.6268 25.6882H62.1048V31.0082Z" fill="white"/>
<path d="M76.4706 38.3992C75.0393 38.3992 73.9183 37.9242 73.1076 36.9742C72.2969 36.0116 71.8916 34.7702 71.8916 33.2502C71.8916 31.7556 72.3033 30.5269 73.1266 29.5642C73.9499 28.5889 75.0329 28.1012 76.3756 28.1012C77.1356 28.1012 77.7943 28.2469 78.3516 28.5382C78.9216 28.8296 79.3649 29.2349 79.6816 29.7542C79.9983 30.2736 80.2263 30.8436 80.3656 31.4642C80.5176 32.0722 80.5936 32.7372 80.5936 33.4592H73.1076C73.1329 34.6246 73.4306 35.5746 74.0006 36.3092C74.5706 37.0312 75.3939 37.3922 76.4706 37.3922C77.9653 37.3922 78.9216 36.6576 79.3396 35.1882H80.4796C80.2643 36.1762 79.8083 36.9616 79.1116 37.5442C78.4276 38.1142 77.5473 38.3992 76.4706 38.3992ZM73.1266 32.5282H79.3586C79.3333 31.5022 79.0673 30.6726 78.5606 30.0392C78.0666 29.3932 77.3383 29.0702 76.3756 29.0702C75.4256 29.0702 74.6719 29.3869 74.1146 30.0202C73.5699 30.6536 73.2406 31.4896 73.1266 32.5282Z" fill="white"/>
<path d="M84.3777 38.1522L80.9007 28.3292H82.1547L84.2637 34.5612L85.0617 37.0502H85.0997C85.429 36.0242 85.7014 35.1946 85.9167 34.5612L88.1207 28.3292H89.3177L85.7647 38.1522H84.3777Z" fill="white"/>
<path d="M90.4777 38.1522V28.3292H91.6557V38.1522H90.4777ZM90.4777 26.2392V24.5672H91.6557V26.2392H90.4777Z" fill="white"/>
<path d="M97.7157 38.3992C96.2844 38.3992 95.1634 37.9242 94.3527 36.9742C93.542 36.0116 93.1367 34.7702 93.1367 33.2502C93.1367 31.7556 93.5484 30.5269 94.3717 29.5642C95.195 28.5889 96.278 28.1012 97.6207 28.1012C98.3807 28.1012 99.0394 28.2469 99.5967 28.5382C100.167 28.8296 100.61 29.2349 100.927 29.7542C101.243 30.2736 101.471 30.8436 101.611 31.4642C101.763 32.0722 101.839 32.7372 101.839 33.4592H94.3527C94.378 34.6246 94.6757 35.5746 95.2457 36.3092C95.8157 37.0312 96.639 37.3922 97.7157 37.3922C99.2104 37.3922 100.167 36.6576 100.585 35.1882H101.725C101.509 36.1762 101.053 36.9616 100.357 37.5442C99.6727 38.1142 98.7924 38.3992 97.7157 38.3992ZM94.3717 32.5282H100.604C100.578 31.5022 100.312 30.6726 99.8057 30.0392C99.3117 29.3932 98.5834 29.0702 97.6207 29.0702C96.6707 29.0702 95.917 29.3869 95.3597 30.0202C94.815 30.6536 94.4857 31.4896 94.3717 32.5282Z" fill="white"/>
<path d="M105.148 38.1522L102.222 28.3292H103.457L105.167 34.4092L105.794 36.9742H105.832C106.085 35.9229 106.294 35.0996 106.459 34.5042L108.131 28.3292H109.404L111.019 34.5042L111.608 36.9742H111.646C111.912 35.8976 112.14 35.0426 112.33 34.4092L114.154 28.3292H115.351L112.254 38.1522H110.962L109.271 31.8822L108.758 29.6592H108.72C108.542 30.5206 108.371 31.2616 108.207 31.8822L106.478 38.1522H105.148Z" fill="white"/>
<path d="M119.781 38.4182C118.514 38.4182 117.533 38.1142 116.836 37.5062C116.152 36.8982 115.778 36.0939 115.715 35.0932H116.912C117.077 36.6386 118.039 37.4112 119.8 37.4112C120.598 37.4112 121.212 37.2402 121.643 36.8982C122.074 36.5562 122.289 36.0939 122.289 35.5112C122.289 34.9792 122.105 34.5866 121.738 34.3332C121.383 34.0799 120.693 33.8392 119.667 33.6112C119.072 33.4719 118.597 33.3452 118.242 33.2312C117.887 33.1172 117.52 32.9589 117.14 32.7562C116.773 32.5409 116.5 32.2749 116.323 31.9582C116.158 31.6289 116.076 31.2362 116.076 30.7802C116.076 29.9696 116.393 29.3236 117.026 28.8422C117.659 28.3609 118.483 28.1202 119.496 28.1202C121.675 28.1202 122.891 29.0892 123.144 31.0272H121.966C121.827 29.7352 121.003 29.0892 119.496 29.0892C118.761 29.0892 118.204 29.2412 117.824 29.5452C117.444 29.8492 117.254 30.2419 117.254 30.7232C117.254 31.2426 117.457 31.6162 117.862 31.8442C118.267 32.0596 119.002 32.2939 120.066 32.5472C121.231 32.7879 122.086 33.1109 122.631 33.5162C123.188 33.9089 123.467 34.5676 123.467 35.4922C123.467 36.3789 123.131 37.0882 122.46 37.6202C121.801 38.1522 120.908 38.4182 119.781 38.4182Z" fill="white"/>
<path d="M61.7135 0L63.5631 5.40107L69.5544 5.40547L64.7115 8.74666L66.5611 14.1522L61.7135 10.8143L56.8706 14.1522L58.7202 8.74666L53.8725 5.40547H59.8598" fill="#F0C427"/>
<path d="M79.157 0L77.3053 5.40107L71.316 5.4061L76.1564 8.74536L74.3107 14.1516L79.157 10.8123L83.9973 14.1516L82.1516 8.74536L86.9979 5.4061H81.0139M79.1577 1.65454L80.6172 5.91657H85.3323L81.5151 8.54742L82.9747 12.8045L79.1574 10.1736" fill="#F0C427"/>
<path d="M96.6042 0L94.7546 5.40107L88.7633 5.40547L93.6062 8.74666L91.7566 14.1522L96.6042 10.8143L101.447 14.1522L99.5975 8.74666L104.445 5.40547H98.4579M96.6035 1.6589L98.0624 5.92093H102.778L98.9603 8.55242L100.419 12.8095L96.602 10.178L92.7848 12.8095L94.2437 8.55242L90.4265 5.92093H95.1415" fill="#F0C427"/>
<path d="M44.2761 0L46.1257 5.40107L52.117 5.40547L47.2741 8.74666L49.1237 14.1522L44.2761 10.8143L39.4332 14.1522L41.2828 8.74666L36.4351 5.40547H42.4224" fill="#F0C427"/>
<path d="M26.8405 0L28.6901 5.40107L34.6814 5.40547L29.8386 8.74666L31.6882 14.1522L26.8405 10.8143L21.9976 14.1522L23.8472 8.74666L18.9996 5.40547H24.9868" fill="#F0C427"/>
</svg>
