<svg width="124" height="38" viewBox="0 0 124 38" fill="none" xmlns="http://www.w3.org/2000/svg">
<path d="M6.91559 34.266C4.97759 34.266 3.45126 33.6137 2.33659 32.309C1.23459 31.0043 0.683594 29.307 0.683594 27.217C0.683594 25.1523 1.25359 23.4613 2.39359 22.144C3.53359 20.814 5.10426 20.149 7.10559 20.149C8.52426 20.149 9.70859 20.51 10.6586 21.232C11.6213 21.954 12.2229 22.9927 12.4636 24.348H11.1526C10.9499 23.3473 10.4876 22.581 9.76559 22.049C9.04359 21.517 8.15693 21.251 7.10559 21.251C5.43359 21.251 4.16693 21.8083 3.30559 22.923C2.44426 24.0377 2.01359 25.469 2.01359 27.217C2.01359 28.9523 2.44426 30.3773 3.30559 31.492C4.16693 32.594 5.37659 33.145 6.93459 33.145C8.41659 33.145 9.53126 32.7143 10.2786 31.853C11.0386 30.979 11.4186 29.9023 11.4186 28.623V28.148H7.04859V27.027H12.6726V34H11.7796L11.5136 31.834H11.4566C10.4179 33.4553 8.90426 34.266 6.91559 34.266Z" fill="white"/>
<path d="M18.7465 33.259C19.7978 33.259 20.6148 32.8663 21.1975 32.081C21.7802 31.2957 22.0715 30.3013 22.0715 29.098C22.0715 27.8947 21.7802 26.9003 21.1975 26.115C20.6148 25.3297 19.7978 24.937 18.7465 24.937C17.6825 24.937 16.8592 25.3297 16.2765 26.115C15.6938 26.9003 15.4025 27.8947 15.4025 29.098C15.4025 30.3013 15.6938 31.2957 16.2765 32.081C16.8592 32.8663 17.6825 33.259 18.7465 33.259ZM18.7465 34.247C17.3532 34.247 16.2448 33.7657 15.4215 32.803C14.5982 31.8277 14.1865 30.5927 14.1865 29.098C14.1865 27.6033 14.5982 26.3747 15.4215 25.412C16.2448 24.4367 17.3532 23.949 18.7465 23.949C20.1272 23.949 21.2228 24.4367 22.0335 25.412C22.8568 26.3747 23.2685 27.6033 23.2685 29.098C23.2685 30.5927 22.8568 31.8277 22.0335 32.803C21.2228 33.7657 20.1272 34.247 18.7465 34.247Z" fill="white"/>
<path d="M28.8031 33.259C29.8545 33.259 30.6715 32.8663 31.2541 32.081C31.8368 31.2957 32.1281 30.3013 32.1281 29.098C32.1281 27.8947 31.8368 26.9003 31.2541 26.115C30.6715 25.3297 29.8545 24.937 28.8031 24.937C27.7391 24.937 26.9158 25.3297 26.3331 26.115C25.7505 26.9003 25.4591 27.8947 25.4591 29.098C25.4591 30.3013 25.7505 31.2957 26.3331 32.081C26.9158 32.8663 27.7391 33.259 28.8031 33.259ZM28.8031 34.247C27.4098 34.247 26.3015 33.7657 25.4781 32.803C24.6548 31.8277 24.2431 30.5927 24.2431 29.098C24.2431 27.6033 24.6548 26.3747 25.4781 25.412C26.3015 24.4367 27.4098 23.949 28.8031 23.949C30.1838 23.949 31.2795 24.4367 32.0901 25.412C32.9135 26.3747 33.3251 27.6033 33.3251 29.098C33.3251 30.5927 32.9135 31.8277 32.0901 32.803C31.2795 33.7657 30.1838 34.247 28.8031 34.247Z" fill="white"/>
<path d="M38.6508 37.439C37.4855 37.439 36.5608 37.1983 35.8768 36.717C35.1928 36.2483 34.8065 35.634 34.7178 34.874H35.8578C36.0478 35.938 36.9661 36.47 38.6128 36.47C39.6388 36.47 40.4051 36.223 40.9118 35.729C41.4311 35.235 41.6908 34.5447 41.6908 33.658V32.1H41.6338C40.8865 33.24 39.8478 33.81 38.5178 33.81C37.2385 33.81 36.2125 33.3603 35.4398 32.461C34.6798 31.549 34.2998 30.3647 34.2998 28.908C34.2998 27.3753 34.7051 26.172 35.5158 25.298C36.3265 24.4113 37.3271 23.968 38.5178 23.968C39.8985 23.968 40.9371 24.5443 41.6338 25.697H41.6908V24.177H42.8498V33.62C42.8498 34.7093 42.5458 35.5897 41.9378 36.261C41.1905 37.0463 40.0948 37.439 38.6508 37.439ZM38.5748 32.822C39.6388 32.822 40.4368 32.4737 40.9688 31.777C41.5008 31.0677 41.7668 30.105 41.7668 28.889C41.7668 27.6857 41.4945 26.7293 40.9498 26.02C40.4178 25.3107 39.6325 24.956 38.5938 24.956C37.6311 24.956 36.8775 25.317 36.3328 26.039C35.7881 26.7483 35.5158 27.711 35.5158 28.927C35.5158 30.0923 35.7755 31.036 36.2948 31.758C36.8141 32.4673 37.5741 32.822 38.5748 32.822Z" fill="white"/>
<path d="M44.8893 34V20.415H46.0673V34H44.8893Z" fill="white"/>
<path d="M52.1639 34.247C50.7326 34.247 49.6116 33.772 48.8009 32.822C47.9903 31.8593 47.5849 30.618 47.5849 29.098C47.5849 27.6033 47.9966 26.3747 48.8199 25.412C49.6433 24.4367 50.7263 23.949 52.0689 23.949C52.8289 23.949 53.4876 24.0947 54.0449 24.386C54.6149 24.6773 55.0583 25.0827 55.3749 25.602C55.6916 26.1213 55.9196 26.6913 56.0589 27.312C56.2109 27.92 56.2869 28.585 56.2869 29.307H48.8009C48.8263 30.4723 49.1239 31.4223 49.6939 32.157C50.2639 32.879 51.0873 33.24 52.1639 33.24C53.6586 33.24 54.6149 32.5053 55.0329 31.036H56.1729C55.9576 32.024 55.5016 32.8093 54.8049 33.392C54.1209 33.962 53.2406 34.247 52.1639 34.247ZM48.8199 28.376H55.0519C55.0266 27.35 54.7606 26.5203 54.2539 25.887C53.7599 25.241 53.0316 24.918 52.0689 24.918C51.1189 24.918 50.3653 25.2347 49.8079 25.868C49.2633 26.5013 48.9339 27.3373 48.8199 28.376Z" fill="white"/>
<path d="M60.8318 34V20.415H66.8928C68.1088 20.415 69.0525 20.7443 69.7238 21.403C70.4078 22.049 70.7498 22.942 70.7498 24.082C70.7498 25.7793 69.9898 26.8687 68.4698 27.35V27.407C69.1538 27.635 69.6351 28.0277 69.9138 28.585C70.2051 29.1297 70.3761 29.9403 70.4268 31.017C70.5028 32.7397 70.6991 33.7087 71.0158 33.924V34H69.6478C69.4958 33.8987 69.3881 33.658 69.3248 33.278C69.2741 32.898 69.2171 32.1253 69.1538 30.96C69.1031 29.8073 68.8561 29.0157 68.4128 28.585C67.9821 28.1543 67.2601 27.939 66.2468 27.939H62.1048V34H60.8318ZM62.1048 26.856H66.4558C67.4311 26.856 68.1721 26.628 68.6788 26.172C69.1855 25.7033 69.4388 25.0447 69.4388 24.196C69.4388 23.322 69.2171 22.6633 68.7738 22.22C68.3305 21.764 67.6148 21.536 66.6268 21.536H62.1048V26.856Z" fill="white"/>
<path d="M76.4706 34.247C75.0393 34.247 73.9183 33.772 73.1076 32.822C72.2969 31.8593 71.8916 30.618 71.8916 29.098C71.8916 27.6033 72.3033 26.3747 73.1266 25.412C73.9499 24.4367 75.0329 23.949 76.3756 23.949C77.1356 23.949 77.7943 24.0947 78.3516 24.386C78.9216 24.6773 79.3649 25.0827 79.6816 25.602C79.9983 26.1213 80.2263 26.6913 80.3656 27.312C80.5176 27.92 80.5936 28.585 80.5936 29.307H73.1076C73.1329 30.4723 73.4306 31.4223 74.0006 32.157C74.5706 32.879 75.3939 33.24 76.4706 33.24C77.9653 33.24 78.9216 32.5053 79.3396 31.036H80.4796C80.2643 32.024 79.8083 32.8093 79.1116 33.392C78.4276 33.962 77.5473 34.247 76.4706 34.247ZM73.1266 28.376H79.3586C79.3333 27.35 79.0673 26.5203 78.5606 25.887C78.0666 25.241 77.3383 24.918 76.3756 24.918C75.4256 24.918 74.6719 25.2347 74.1146 25.868C73.5699 26.5013 73.2406 27.3373 73.1266 28.376Z" fill="white"/>
<path d="M84.3777 34L80.9007 24.177H82.1547L84.2637 30.409L85.0617 32.898H85.0997C85.429 31.872 85.7014 31.0423 85.9167 30.409L88.1207 24.177H89.3177L85.7647 34H84.3777Z" fill="white"/>
<path d="M90.4777 34V24.177H91.6557V34H90.4777ZM90.4777 22.087V20.415H91.6557V22.087H90.4777Z" fill="white"/>
<path d="M97.7157 34.247C96.2844 34.247 95.1634 33.772 94.3527 32.822C93.542 31.8593 93.1367 30.618 93.1367 29.098C93.1367 27.6033 93.5484 26.3747 94.3717 25.412C95.195 24.4367 96.278 23.949 97.6207 23.949C98.3807 23.949 99.0394 24.0947 99.5967 24.386C100.167 24.6773 100.61 25.0827 100.927 25.602C101.243 26.1213 101.471 26.6913 101.611 27.312C101.763 27.92 101.839 28.585 101.839 29.307H94.3527C94.378 30.4723 94.6757 31.4223 95.2457 32.157C95.8157 32.879 96.639 33.24 97.7157 33.24C99.2104 33.24 100.167 32.5053 100.585 31.036H101.725C101.509 32.024 101.053 32.8093 100.357 33.392C99.6727 33.962 98.7924 34.247 97.7157 34.247ZM94.3717 28.376H100.604C100.578 27.35 100.312 26.5203 99.8057 25.887C99.3117 25.241 98.5834 24.918 97.6207 24.918C96.6707 24.918 95.917 25.2347 95.3597 25.868C94.815 26.5013 94.4857 27.3373 94.3717 28.376Z" fill="white"/>
<path d="M105.148 34L102.222 24.177H103.457L105.167 30.257L105.794 32.822H105.832C106.085 31.7707 106.294 30.9473 106.459 30.352L108.131 24.177H109.404L111.019 30.352L111.608 32.822H111.646C111.912 31.7453 112.14 30.8903 112.33 30.257L114.154 24.177H115.351L112.254 34H110.962L109.271 27.73L108.758 25.507H108.72C108.542 26.3683 108.371 27.1093 108.207 27.73L106.478 34H105.148Z" fill="white"/>
<path d="M119.781 34.266C118.514 34.266 117.533 33.962 116.836 33.354C116.152 32.746 115.778 31.9417 115.715 30.941H116.912C117.077 32.4863 118.039 33.259 119.8 33.259C120.598 33.259 121.212 33.088 121.643 32.746C122.074 32.404 122.289 31.9417 122.289 31.359C122.289 30.827 122.105 30.4343 121.738 30.181C121.383 29.9277 120.693 29.687 119.667 29.459C119.072 29.3197 118.597 29.193 118.242 29.079C117.887 28.965 117.52 28.8067 117.14 28.604C116.773 28.3887 116.5 28.1227 116.323 27.806C116.158 27.4767 116.076 27.084 116.076 26.628C116.076 25.8173 116.393 25.1713 117.026 24.69C117.659 24.2087 118.483 23.968 119.496 23.968C121.675 23.968 122.891 24.937 123.144 26.875H121.966C121.827 25.583 121.003 24.937 119.496 24.937C118.761 24.937 118.204 25.089 117.824 25.393C117.444 25.697 117.254 26.0897 117.254 26.571C117.254 27.0903 117.457 27.464 117.862 27.692C118.267 27.9073 119.002 28.1417 120.066 28.395C121.231 28.6357 122.086 28.9587 122.631 29.364C123.188 29.7567 123.467 30.4153 123.467 31.34C123.467 32.2267 123.131 32.936 122.46 33.468C121.801 34 120.908 34.266 119.781 34.266Z" fill="white"/>
<path d="M61.7135 0L63.5631 5.40107L69.5544 5.40547L64.7115 8.74666L66.5611 14.1522L61.7135 10.8143L56.8706 14.1522L58.7202 8.74666L53.8725 5.40547H59.8598" fill="#F0C427"/>
<path d="M79.157 0L77.3053 5.40107L71.316 5.4061L76.1564 8.74536L74.3107 14.1516L79.157 10.8123L83.9973 14.1516L82.1516 8.74536L86.9979 5.4061H81.0139M79.1577 1.65454L80.6172 5.91657H85.3323L81.5151 8.54742L82.9747 12.8045L79.1574 10.1736" fill="#F0C427"/>
<path d="M96.6042 0L94.7546 5.40107L88.7633 5.40547L93.6062 8.74666L91.7566 14.1522L96.6042 10.8143L101.447 14.1522L99.5975 8.74666L104.445 5.40547H98.4579M96.6035 1.6589L98.0624 5.92093H102.778L98.9603 8.55242L100.419 12.8095L96.602 10.178L92.7848 12.8095L94.2437 8.55242L90.4265 5.92093H95.1415" fill="#F0C427"/>
<path d="M44.2761 0L46.1257 5.40107L52.117 5.40547L47.2741 8.74666L49.1237 14.1522L44.2761 10.8143L39.4332 14.1522L41.2828 8.74666L36.4351 5.40547H42.4224" fill="#F0C427"/>
<path d="M26.8405 0L28.6901 5.40107L34.6815 5.40547L29.8386 8.74666L31.6882 14.1522L26.8405 10.8143L21.9976 14.1522L23.8472 8.74666L18.9996 5.40547H24.9868" fill="#F0C427"/>
</svg>
