<svg width="91" height="26" viewBox="0 0 91 26" fill="none" xmlns="http://www.w3.org/2000/svg">
<path d="M6.1875 17.1065C6.10511 16.848 5.99432 16.6165 5.85511 16.4119C5.71875 16.2045 5.5554 16.0284 5.36506 15.8835C5.17472 15.7358 4.95739 15.6236 4.71307 15.5469C4.47159 15.4702 4.20597 15.4318 3.91619 15.4318C3.42472 15.4318 2.98153 15.5582 2.58665 15.8111C2.19176 16.0639 1.87926 16.4347 1.64915 16.9233C1.42187 17.4091 1.30824 18.0043 1.30824 18.7088C1.30824 19.4162 1.4233 20.0142 1.65341 20.5028C1.88352 20.9915 2.19886 21.3622 2.59943 21.6151C3 21.8679 3.45597 21.9943 3.96733 21.9943C4.44176 21.9943 4.85511 21.8977 5.20739 21.7045C5.5625 21.5114 5.83665 21.2386 6.02983 20.8864C6.22585 20.5313 6.32386 20.1136 6.32386 19.6335L6.66477 19.6974H4.16761V18.6108H7.59801V19.6037C7.59801 20.3366 7.44176 20.973 7.12926 21.5128C6.8196 22.0497 6.39062 22.4645 5.84233 22.7571C5.29688 23.0497 4.67188 23.196 3.96733 23.196C3.17756 23.196 2.48438 23.0142 1.88778 22.6506C1.29403 22.2869 0.830966 21.7713 0.49858 21.1037C0.166193 20.4332 0 19.6378 0 18.7173C0 18.0213 0.0965909 17.3963 0.289773 16.8423C0.482955 16.2884 0.754261 15.8182 1.10369 15.4318C1.45597 15.0426 1.86932 14.7457 2.34375 14.5412C2.82102 14.3338 3.34233 14.2301 3.90767 14.2301C4.37926 14.2301 4.81818 14.2997 5.22443 14.4389C5.63352 14.5781 5.99716 14.7756 6.31534 15.0312C6.63636 15.2869 6.90199 15.5909 7.11222 15.9432C7.32244 16.2926 7.46449 16.6804 7.53835 17.1065H6.1875Z" fill="white"/>
<path d="M11.9244 23.2088C11.3107 23.2088 10.7752 23.0682 10.3178 22.7869C9.86044 22.5057 9.50533 22.1122 9.25249 21.6065C8.99964 21.1009 8.87322 20.5099 8.87322 19.8338C8.87322 19.1548 8.99964 18.5611 9.25249 18.0526C9.50533 17.544 9.86044 17.1491 10.3178 16.8679C10.7752 16.5866 11.3107 16.446 11.9244 16.446C12.538 16.446 13.0735 16.5866 13.5309 16.8679C13.9883 17.1491 14.3434 17.544 14.5962 18.0526C14.8491 18.5611 14.9755 19.1548 14.9755 19.8338C14.9755 20.5099 14.8491 21.1009 14.5962 21.6065C14.3434 22.1122 13.9883 22.5057 13.5309 22.7869C13.0735 23.0682 12.538 23.2088 11.9244 23.2088ZM11.9286 22.1392C12.3263 22.1392 12.6559 22.0341 12.9173 21.8239C13.1786 21.6136 13.3718 21.3338 13.4968 20.9844C13.6246 20.6349 13.6886 20.25 13.6886 19.8295C13.6886 19.4119 13.6246 19.0284 13.4968 18.679C13.3718 18.3267 13.1786 18.044 12.9173 17.831C12.6559 17.6179 12.3263 17.5114 11.9286 17.5114C11.5281 17.5114 11.1957 17.6179 10.9315 17.831C10.6701 18.044 10.4755 18.3267 10.3477 18.679C10.2227 19.0284 10.1602 19.4119 10.1602 19.8295C10.1602 20.25 10.2227 20.6349 10.3477 20.9844C10.4755 21.3338 10.6701 21.6136 10.9315 21.8239C11.1957 22.0341 11.5281 22.1392 11.9286 22.1392Z" fill="white"/>
<path d="M19.1548 23.2088C18.5412 23.2088 18.0057 23.0682 17.5483 22.7869C17.0909 22.5057 16.7358 22.1122 16.483 21.6065C16.2301 21.1009 16.1037 20.5099 16.1037 19.8338C16.1037 19.1548 16.2301 18.5611 16.483 18.0526C16.7358 17.544 17.0909 17.1491 17.5483 16.8679C18.0057 16.5866 18.5412 16.446 19.1548 16.446C19.7685 16.446 20.304 16.5866 20.7614 16.8679C21.2188 17.1491 21.5739 17.544 21.8267 18.0526C22.0795 18.5611 22.206 19.1548 22.206 19.8338C22.206 20.5099 22.0795 21.1009 21.8267 21.6065C21.5739 22.1122 21.2188 22.5057 20.7614 22.7869C20.304 23.0682 19.7685 23.2088 19.1548 23.2088ZM19.1591 22.1392C19.5568 22.1392 19.8864 22.0341 20.1477 21.8239C20.4091 21.6136 20.6023 21.3338 20.7273 20.9844C20.8551 20.6349 20.919 20.25 20.919 19.8295C20.919 19.4119 20.8551 19.0284 20.7273 18.679C20.6023 18.3267 20.4091 18.044 20.1477 17.831C19.8864 17.6179 19.5568 17.5114 19.1591 17.5114C18.7585 17.5114 18.4261 17.6179 18.1619 17.831C17.9006 18.044 17.706 18.3267 17.5781 18.679C17.4531 19.0284 17.3906 19.4119 17.3906 19.8295C17.3906 20.25 17.4531 20.6349 17.5781 20.9844C17.706 21.3338 17.9006 21.6136 18.1619 21.8239C18.4261 22.0341 18.7585 22.1392 19.1591 22.1392Z" fill="white"/>
<path d="M26.3725 25.6676C25.8526 25.6676 25.4052 25.5994 25.0302 25.4631C24.658 25.3267 24.354 25.1463 24.1183 24.9219C23.8825 24.6974 23.7063 24.4517 23.5898 24.1847L24.685 23.733C24.7617 23.858 24.864 23.9901 24.9918 24.1293C25.1225 24.2713 25.2986 24.392 25.5202 24.4915C25.7447 24.5909 26.033 24.6406 26.3853 24.6406C26.8683 24.6406 27.2674 24.5227 27.5827 24.2869C27.8981 24.054 28.0558 23.6818 28.0558 23.1705V21.8835H27.9748C27.8981 22.0227 27.7873 22.1776 27.6424 22.348C27.5004 22.5185 27.3043 22.6662 27.0543 22.7912C26.8043 22.9162 26.479 22.9787 26.0785 22.9787C25.5614 22.9787 25.0955 22.858 24.6808 22.6165C24.2688 22.3722 23.9421 22.0128 23.7006 21.5384C23.462 21.0611 23.3427 20.4744 23.3427 19.7784C23.3427 19.0824 23.4606 18.4858 23.6964 17.9886C23.935 17.4915 24.2617 17.1108 24.6765 16.8466C25.0913 16.5795 25.5614 16.446 26.087 16.446C26.4933 16.446 26.8214 16.5142 27.0714 16.6506C27.3214 16.7841 27.516 16.9403 27.6552 17.1193C27.7972 17.2983 27.9066 17.456 27.9833 17.5923H28.0771V16.5312H29.3256V23.2216C29.3256 23.7841 29.195 24.2457 28.9336 24.6065C28.6722 24.9673 28.3185 25.2344 27.8725 25.4077C27.4293 25.581 26.9293 25.6676 26.3725 25.6676ZM26.3597 21.9219C26.7262 21.9219 27.0359 21.8366 27.2887 21.6662C27.5444 21.4929 27.7376 21.2457 27.8683 20.9247C28.0018 20.6009 28.0685 20.2131 28.0685 19.7614C28.0685 19.321 28.0032 18.9332 27.8725 18.598C27.7418 18.2628 27.5501 18.0014 27.2972 17.8139C27.0444 17.6236 26.7319 17.5284 26.3597 17.5284C25.9762 17.5284 25.6566 17.6278 25.4009 17.8267C25.1452 18.0227 24.9521 18.2898 24.8214 18.6278C24.6935 18.9659 24.6296 19.3438 24.6296 19.7614C24.6296 20.1903 24.695 20.5668 24.8256 20.8906C24.9563 21.2145 25.1495 21.4673 25.4052 21.6491C25.6637 21.831 25.9819 21.9219 26.3597 21.9219Z" fill="white"/>
<path d="M32.3086 14.3494V23.0767H31.0344V14.3494H32.3086Z" fill="white"/>
<path d="M36.8438 23.2088C36.1989 23.2088 35.6435 23.071 35.1776 22.7955C34.7145 22.517 34.3565 22.1264 34.1037 21.6236C33.8537 21.1179 33.7287 20.5256 33.7287 19.8466C33.7287 19.1761 33.8537 18.5852 34.1037 18.0739C34.3565 17.5625 34.7088 17.1634 35.1605 16.8764C35.6151 16.5895 36.1463 16.446 36.7543 16.446C37.1236 16.446 37.4815 16.5071 37.8281 16.6293C38.1747 16.7514 38.4858 16.9432 38.7614 17.2045C39.0369 17.4659 39.2543 17.8054 39.4134 18.223C39.5724 18.6378 39.652 19.142 39.652 19.7358V20.1875H34.4489V19.233H38.4034C38.4034 18.8977 38.3352 18.6009 38.1989 18.3423C38.0625 18.081 37.8707 17.875 37.6236 17.7244C37.3793 17.5739 37.0923 17.4986 36.7628 17.4986C36.4048 17.4986 36.0923 17.5866 35.8253 17.7628C35.5611 17.9361 35.3565 18.1634 35.2117 18.4446C35.0696 18.723 34.9986 19.0256 34.9986 19.3523V20.098C34.9986 20.5355 35.0753 20.9077 35.2287 21.2145C35.3849 21.5213 35.6023 21.7557 35.8807 21.9176C36.1591 22.0767 36.4844 22.1562 36.8565 22.1562C37.098 22.1562 37.3182 22.1222 37.517 22.054C37.7159 21.983 37.8878 21.8778 38.0327 21.7386C38.1776 21.5994 38.2884 21.4276 38.3651 21.223L39.571 21.4403C39.4744 21.7955 39.3011 22.1065 39.0511 22.3736C38.804 22.6378 38.4929 22.8438 38.1179 22.9915C37.7457 23.1364 37.321 23.2088 36.8438 23.2088Z" fill="white"/>
<path d="M44.3438 23.0767V14.3494H47.4545C48.1307 14.3494 48.6918 14.4659 49.1378 14.6989C49.5867 14.9318 49.9219 15.2543 50.1435 15.6662C50.3651 16.0753 50.4759 16.5483 50.4759 17.0852C50.4759 17.6193 50.3636 18.0895 50.1392 18.4957C49.9176 18.8991 49.5824 19.2131 49.1335 19.4375C48.6875 19.6619 48.1264 19.7741 47.4503 19.7741H45.0938V18.6406H47.331C47.7571 18.6406 48.1037 18.5795 48.3707 18.4574C48.6406 18.3352 48.8381 18.1577 48.9631 17.9247C49.0881 17.6918 49.1506 17.4119 49.1506 17.0852C49.1506 16.7557 49.0866 16.4702 48.9588 16.2287C48.8338 15.9872 48.6364 15.8026 48.3665 15.6747C48.0994 15.544 47.7486 15.4787 47.3139 15.4787H45.6605V23.0767H44.3438ZM48.652 19.1392L50.8082 23.0767H49.3082L47.1946 19.1392H48.652Z" fill="white"/>
<path d="M54.7148 23.2088C54.07 23.2088 53.5146 23.071 53.0487 22.7955C52.5856 22.517 52.2276 22.1264 51.9748 21.6236C51.7248 21.1179 51.5998 20.5256 51.5998 19.8466C51.5998 19.1761 51.7248 18.5852 51.9748 18.0739C52.2276 17.5625 52.5799 17.1634 53.0316 16.8764C53.4862 16.5895 54.0174 16.446 54.6254 16.446C54.9947 16.446 55.3526 16.5071 55.6992 16.6293C56.0458 16.7514 56.3569 16.9432 56.6325 17.2045C56.908 17.4659 57.1254 17.8054 57.2844 18.223C57.4435 18.6378 57.5231 19.142 57.5231 19.7358V20.1875H52.32V19.233H56.2745C56.2745 18.8977 56.2063 18.6009 56.07 18.3423C55.9336 18.081 55.7418 17.875 55.4947 17.7244C55.2504 17.5739 54.9634 17.4986 54.6339 17.4986C54.2759 17.4986 53.9634 17.5866 53.6964 17.7628C53.4322 17.9361 53.2276 18.1634 53.0827 18.4446C52.9407 18.723 52.8697 19.0256 52.8697 19.3523V20.098C52.8697 20.5355 52.9464 20.9077 53.0998 21.2145C53.256 21.5213 53.4734 21.7557 53.7518 21.9176C54.0302 22.0767 54.3555 22.1562 54.7276 22.1562C54.9691 22.1562 55.1893 22.1222 55.3881 22.054C55.587 21.983 55.7589 21.8778 55.9038 21.7386C56.0487 21.5994 56.1594 21.4276 56.2362 21.223L57.4421 21.4403C57.3455 21.7955 57.1722 22.1065 56.9222 22.3736C56.6751 22.6378 56.364 22.8438 55.989 22.9915C55.6168 23.1364 55.1921 23.2088 54.7148 23.2088Z" fill="white"/>
<path d="M64.3487 16.5312L61.9751 23.0767H60.6115L58.2337 16.5312H59.6016L61.2592 21.5682H61.3274L62.9808 16.5312H64.3487Z" fill="white"/>
<path d="M65.5462 23.0767V16.5312H66.8203V23.0767H65.5462ZM66.1896 15.5213C65.968 15.5213 65.7777 15.4474 65.6186 15.2997C65.4624 15.1491 65.3842 14.9702 65.3842 14.7628C65.3842 14.5526 65.4624 14.3736 65.6186 14.2259C65.7777 14.0753 65.968 14 66.1896 14C66.4112 14 66.6001 14.0753 66.7564 14.2259C66.9155 14.3736 66.995 14.5526 66.995 14.7628C66.995 14.9702 66.9155 15.1491 66.7564 15.2997C66.6001 15.4474 66.4112 15.5213 66.1896 15.5213Z" fill="white"/>
<path d="M71.3555 23.2088C70.7106 23.2088 70.1552 23.071 69.6893 22.7955C69.2262 22.517 68.8683 22.1264 68.6154 21.6236C68.3654 21.1179 68.2404 20.5256 68.2404 19.8466C68.2404 19.1761 68.3654 18.5852 68.6154 18.0739C68.8683 17.5625 69.2205 17.1634 69.6722 16.8764C70.1268 16.5895 70.658 16.446 71.266 16.446C71.6353 16.446 71.9933 16.5071 72.3398 16.6293C72.6864 16.7514 72.9975 16.9432 73.2731 17.2045C73.5486 17.4659 73.766 17.8054 73.9251 18.223C74.0842 18.6378 74.1637 19.142 74.1637 19.7358V20.1875H68.9606V19.233H72.9151C72.9151 18.8977 72.8469 18.6009 72.7106 18.3423C72.5742 18.081 72.3825 17.875 72.1353 17.7244C71.891 17.5739 71.604 17.4986 71.2745 17.4986C70.9165 17.4986 70.604 17.5866 70.337 17.7628C70.0728 17.9361 69.8683 18.1634 69.7234 18.4446C69.5813 18.723 69.5103 19.0256 69.5103 19.3523V20.098C69.5103 20.5355 69.587 20.9077 69.7404 21.2145C69.8967 21.5213 70.114 21.7557 70.3924 21.9176C70.6708 22.0767 70.9961 22.1562 71.3682 22.1562C71.6097 22.1562 71.8299 22.1222 72.0288 22.054C72.2276 21.983 72.3995 21.8778 72.5444 21.7386C72.6893 21.5994 72.8001 21.4276 72.8768 21.223L74.0827 21.4403C73.9861 21.7955 73.8129 22.1065 73.5629 22.3736C73.3157 22.6378 73.0046 22.8438 72.6296 22.9915C72.2575 23.1364 71.8327 23.2088 71.3555 23.2088Z" fill="white"/>
<path d="M76.9847 23.0767L75.0586 16.5312H76.3754L77.658 21.3381H77.7219L79.0089 16.5312H80.3256L81.604 21.3168H81.668L82.9421 16.5312H84.2589L82.337 23.0767H81.0373L79.7077 18.3509H79.6097L78.2802 23.0767H76.9847Z" fill="white"/>
<path d="M90.3729 18.1293L89.218 18.3338C89.1697 18.1861 89.093 18.0455 88.9879 17.9119C88.8856 17.7784 88.7464 17.669 88.5703 17.5838C88.3942 17.4986 88.174 17.456 87.9098 17.456C87.549 17.456 87.2479 17.5369 87.0064 17.6989C86.7649 17.858 86.6442 18.0639 86.6442 18.3168C86.6442 18.5355 86.7251 18.7116 86.8871 18.8452C87.049 18.9787 87.3104 19.0881 87.6712 19.1733L88.7109 19.4119C89.3132 19.5511 89.7621 19.7656 90.0575 20.0554C90.353 20.3452 90.5007 20.7216 90.5007 21.1847C90.5007 21.5767 90.3871 21.9261 90.1598 22.233C89.9354 22.5369 89.6214 22.7756 89.218 22.9489C88.8175 23.1222 88.353 23.2088 87.8246 23.2088C87.0916 23.2088 86.4936 23.0526 86.0305 22.7401C85.5675 22.4247 85.2834 21.9773 85.1783 21.3977L86.4098 21.2102C86.4865 21.5313 86.6442 21.7741 86.8828 21.9389C87.1214 22.1009 87.4325 22.1818 87.816 22.1818C88.2337 22.1818 88.5675 22.0952 88.8175 21.9219C89.0675 21.7457 89.1925 21.5313 89.1925 21.2784C89.1925 21.0739 89.1158 20.902 88.9624 20.7628C88.8118 20.6236 88.5803 20.5185 88.2678 20.4474L87.1598 20.2045C86.549 20.0653 86.0973 19.8438 85.8047 19.5398C85.5149 19.2358 85.37 18.8509 85.37 18.3849C85.37 17.9986 85.478 17.6605 85.6939 17.3707C85.9098 17.081 86.2081 16.8551 86.5888 16.6932C86.9695 16.5284 87.4055 16.446 87.897 16.446C88.6044 16.446 89.1612 16.5994 89.5675 16.9062C89.9737 17.2102 90.2422 17.6179 90.3729 18.1293Z" fill="white"/>
<path d="M44.6479 0L45.8885 3.81641L49.907 3.81952L46.6587 6.18041L47.8993 10L44.6479 7.64138L41.3996 10L42.6402 6.18041L39.3887 3.81952H43.4045" fill="#E69C24"/>
<path d="M56.349 0L55.1071 3.81641L51.0898 3.81996L54.3364 6.17949L53.0985 9.99954L56.349 7.64001L59.5956 9.99954L58.3576 6.17949L61.6082 3.81996H57.5945M56.3495 1.1691L57.3285 4.18066H60.491L57.9307 6.03962L58.9097 9.04765L56.3494 7.18869" fill="#E69C24"/>
<path d="M68.0522 0L66.8116 3.81641L62.793 3.81952L66.0413 6.18041L64.8007 10L68.0522 7.64138L71.3005 10L70.0599 6.18041L73.3113 3.81952H69.2955M68.0517 1.17218L69.0303 4.18374H72.1928L69.6325 6.04316L70.611 9.05119L68.0507 7.19176L65.4903 9.05119L66.4689 6.04316L63.9085 4.18374H67.0711" fill="#E69C24"/>
<path d="M32.9525 0L34.1931 3.81641L38.2117 3.81952L34.9634 6.18041L36.204 10L32.9525 7.64138L29.7042 10L30.9448 6.18041L27.6934 3.81952H31.7092" fill="#E69C24"/>
<path d="M21.2592 0L22.4998 3.81641L26.5184 3.81952L23.2701 6.18041L24.5107 10L21.2592 7.64138L18.0109 10L19.2515 6.18041L16 3.81952H20.0159" fill="#E69C24"/>
</svg>
