<svg width="125" height="38" viewBox="0 0 125 38" fill="none" xmlns="http://www.w3.org/2000/svg">
<path d="M51.8591 16L47.0391 1.69995H50.0791L52.5991 9.97995L53.2191 12.26H53.2591C53.4857 11.3533 53.6924 10.5933 53.8791 9.97995L56.3791 1.69995H59.3191L54.4991 16H51.8591Z" fill="#6870FE"/>
<path d="M63.6561 16.3C62.0028 16.3 60.7028 15.7933 59.7561 14.78C58.8094 13.7533 58.3361 12.4466 58.3361 10.86C58.3361 9.32662 58.8094 8.04662 59.7561 7.01995C60.7028 5.97995 61.9161 5.45995 63.3961 5.45995C65.0094 5.45995 66.2561 6.01995 67.1361 7.13995C68.0161 8.25995 68.4561 9.75995 68.4561 11.64H61.0161C61.1228 12.4533 61.3961 13.0866 61.8361 13.54C62.2761 13.98 62.8761 14.2 63.6361 14.2C64.6361 14.2 65.2961 13.78 65.6161 12.94H68.2961C68.0961 13.9 67.5894 14.7 66.7761 15.34C65.9628 15.98 64.9228 16.3 63.6561 16.3ZM63.4361 7.55995C62.1161 7.55995 61.3228 8.29329 61.0561 9.75995H65.6161C65.5761 9.10662 65.3561 8.57995 64.9561 8.17995C64.5561 7.76662 64.0494 7.55995 63.4361 7.55995Z" fill="#6870FE"/>
<path d="M72.335 5.73995V7.37995H72.395C72.715 6.77995 73.0683 6.33995 73.455 6.05995C73.8417 5.76662 74.3283 5.61995 74.915 5.61995C75.195 5.61995 75.4083 5.64662 75.555 5.69995V8.07995H75.495C74.575 7.98662 73.835 8.18662 73.275 8.67995C72.715 9.17328 72.435 9.94662 72.435 11V16H69.715V5.73995H72.335Z" fill="#6870FE"/>
<path d="M76.2244 7.53995V5.73995H77.6444V2.53995H80.3044V5.73995H82.0644V7.53995H80.3044V12.98C80.3044 13.66 80.6444 14 81.3244 14L82.1244 13.98V15.98C81.711 16.0066 81.1444 16.02 80.4244 16.02C79.6377 16.02 78.9777 15.8333 78.4444 15.46C77.911 15.0733 77.6444 14.44 77.6444 13.56V7.53995H76.2244Z" fill="#6870FE"/>
<path d="M83.465 16V5.73995H86.185V16H83.465ZM83.465 4.13995V1.69995H86.185V4.13995H83.465Z" fill="#6870FE"/>
<path d="M92.6977 16.3C91.111 16.3 89.8377 15.7866 88.8777 14.76C87.9177 13.7333 87.4377 12.44 87.4377 10.88C87.4377 9.31995 87.9043 8.02662 88.8377 6.99995C89.7843 5.97328 91.0243 5.45995 92.5577 5.45995C93.851 5.45995 94.9043 5.79995 95.7177 6.47995C96.531 7.15995 97.031 8.07328 97.2177 9.21995H94.5577C94.4643 8.75328 94.251 8.37328 93.9177 8.07995C93.5843 7.78662 93.171 7.63995 92.6777 7.63995C91.8777 7.63995 91.2643 7.92662 90.8377 8.49995C90.411 9.07328 90.1977 9.86662 90.1977 10.88C90.1977 11.88 90.4043 12.6733 90.8177 13.26C91.231 13.8333 91.8377 14.12 92.6377 14.12C93.8243 14.12 94.511 13.54 94.6977 12.38H97.3177C97.2243 13.5133 96.7643 14.4533 95.9377 15.2C95.111 15.9333 94.031 16.3 92.6977 16.3Z" fill="#6870FE"/>
<path d="M105.159 16C105.026 15.8266 104.919 15.4466 104.839 14.86H104.799C104.506 15.3 104.133 15.64 103.679 15.88C103.226 16.12 102.593 16.24 101.779 16.24C100.699 16.24 99.8327 15.9666 99.1794 15.42C98.526 14.8733 98.1994 14.1 98.1994 13.1C98.1994 12.06 98.5594 11.3 99.2794 10.82C99.9994 10.3266 101.013 9.98662 102.319 9.79995C103.279 9.66662 103.933 9.53328 104.279 9.39995C104.626 9.25328 104.799 8.99995 104.799 8.63995C104.799 8.26662 104.653 7.97328 104.359 7.75995C104.066 7.53328 103.639 7.41995 103.079 7.41995C101.839 7.41995 101.179 7.89995 101.099 8.85995H98.6794C98.7194 7.88662 99.1127 7.07995 99.8594 6.43995C100.606 5.79995 101.686 5.47995 103.099 5.47995C105.979 5.47995 107.419 6.73995 107.419 9.25995V14.48C107.419 15.2533 107.539 15.7266 107.779 15.9V16H105.159ZM102.439 14.34C103.186 14.34 103.773 14.1466 104.199 13.76C104.639 13.3733 104.859 12.9133 104.859 12.38V10.84C104.566 11.0133 103.933 11.2133 102.959 11.44C102.186 11.6133 101.639 11.8133 101.319 12.04C100.999 12.2533 100.839 12.5866 100.839 13.04C100.839 13.9066 101.373 14.34 102.439 14.34Z" fill="#6870FE"/>
<path d="M109.189 16V1.69995H111.909V16H109.189Z" fill="#6870FE"/>
<path d="M51.8591 34L47.0391 19.7H50.0791L52.5991 27.98L53.2191 30.26H53.2591C53.4857 29.3533 53.6924 28.5933 53.8791 27.98L56.3791 19.7H59.3191L54.4991 34H51.8591Z" fill="#6870FE"/>
<path d="M63.6561 34.2999C62.0028 34.2999 60.7028 33.7933 59.7561 32.78C58.8094 31.7533 58.3361 30.4466 58.3361 28.86C58.3361 27.3266 58.8094 26.0466 59.7561 25.02C60.7028 23.98 61.9161 23.46 63.3961 23.46C65.0094 23.46 66.2561 24.02 67.1361 25.14C68.0161 26.26 68.4561 27.76 68.4561 29.64H61.0161C61.1228 30.4533 61.3961 31.0866 61.8361 31.54C62.2761 31.98 62.8761 32.2 63.6361 32.2C64.6361 32.2 65.2961 31.78 65.6161 30.94H68.2961C68.0961 31.9 67.5894 32.7 66.7761 33.34C65.9628 33.98 64.9228 34.2999 63.6561 34.2999ZM63.4361 25.56C62.1161 25.56 61.3228 26.2933 61.0561 27.76H65.6161C65.5761 27.1066 65.3561 26.58 64.9561 26.18C64.5561 25.7666 64.0494 25.56 63.4361 25.56Z" fill="#6870FE"/>
<path d="M72.375 23.74V25.14H72.435C73.1417 24.02 74.155 23.46 75.475 23.46C76.5283 23.46 77.3817 23.82 78.035 24.54C78.6883 25.2466 79.015 26.1666 79.015 27.3V34H76.295V27.7C76.295 27.14 76.135 26.6866 75.815 26.34C75.5083 25.9933 75.075 25.82 74.515 25.82C73.915 25.82 73.415 26.04 73.015 26.48C72.6283 26.92 72.435 27.4866 72.435 28.18V34H69.715V23.74H72.375Z" fill="#6870FE"/>
<path d="M79.8962 25.54V23.74H81.3162V20.54H83.9762V23.74H85.7362V25.54H83.9762V30.98C83.9762 31.66 84.3162 32 84.9963 32L85.7962 31.98V33.9799C85.3829 34.0066 84.8162 34.02 84.0962 34.02C83.3096 34.02 82.6496 33.8333 82.1162 33.46C81.5829 33.0733 81.3162 32.44 81.3162 31.56V25.54H79.8962Z" fill="#6870FE"/>
<path d="M96.2369 34H93.6169V32.8H93.5569C93.1835 33.3066 92.7702 33.6799 92.3169 33.9199C91.8769 34.1599 91.3102 34.2799 90.6169 34.2799C89.4969 34.2799 88.6235 33.9466 87.9969 33.28C87.3702 32.6133 87.0569 31.7133 87.0569 30.58V23.74H89.7569V30.12C89.7569 31.36 90.3235 31.98 91.4569 31.98C92.0835 31.98 92.5835 31.7666 92.9569 31.34C93.3302 30.9133 93.5169 30.3533 93.5169 29.66V23.74H96.2369V34Z" fill="#6870FE"/>
<path d="M100.616 23.74V25.38H100.676C100.996 24.78 101.35 24.34 101.736 24.06C102.123 23.7666 102.61 23.62 103.196 23.62C103.476 23.62 103.69 23.6466 103.836 23.7V26.08H103.776C102.856 25.9866 102.116 26.1866 101.556 26.68C100.996 27.1733 100.716 27.9466 100.716 29V34H97.9963V23.74H100.616Z" fill="#6870FE"/>
<path d="M109.535 34.2999C107.882 34.2999 106.582 33.7933 105.635 32.78C104.688 31.7533 104.215 30.4466 104.215 28.86C104.215 27.3266 104.688 26.0466 105.635 25.02C106.582 23.98 107.795 23.46 109.275 23.46C110.888 23.46 112.135 24.02 113.015 25.14C113.895 26.26 114.335 27.76 114.335 29.64H106.895C107.002 30.4533 107.275 31.0866 107.715 31.54C108.155 31.98 108.755 32.2 109.515 32.2C110.515 32.2 111.175 31.78 111.495 30.94H114.175C113.975 31.9 113.468 32.7 112.655 33.34C111.842 33.98 110.802 34.2999 109.535 34.2999ZM109.315 25.56C107.995 25.56 107.202 26.2933 106.935 27.76H111.495C111.455 27.1066 111.235 26.58 110.835 26.18C110.435 25.7666 109.928 25.56 109.315 25.56Z" fill="#6870FE"/>
<path d="M119.754 34.2999C118.287 34.2999 117.141 33.98 116.314 33.34C115.487 32.6866 115.034 31.8 114.954 30.68H117.474C117.647 31.8133 118.394 32.38 119.714 32.38C120.314 32.38 120.774 32.2733 121.094 32.06C121.427 31.8466 121.594 31.56 121.594 31.2C121.594 31.0666 121.567 30.9466 121.514 30.84C121.474 30.7333 121.394 30.64 121.274 30.56C121.167 30.4666 121.067 30.3933 120.974 30.34C120.894 30.2866 120.747 30.2333 120.534 30.18C120.321 30.1266 120.154 30.0866 120.034 30.06C119.927 30.0333 119.734 30 119.454 29.96C119.187 29.9066 119.001 29.8666 118.894 29.84C118.334 29.7333 117.874 29.6266 117.514 29.52C117.167 29.4 116.801 29.2333 116.414 29.02C116.027 28.7933 115.734 28.4933 115.534 28.12C115.347 27.7333 115.254 27.2733 115.254 26.74C115.254 25.6733 115.641 24.86 116.414 24.3C117.201 23.74 118.207 23.46 119.434 23.46C120.754 23.46 121.787 23.7666 122.534 24.38C123.294 24.98 123.727 25.8066 123.834 26.86H121.374C121.267 25.86 120.607 25.36 119.394 25.36C118.847 25.36 118.414 25.46 118.094 25.66C117.787 25.86 117.634 26.14 117.634 26.5C117.634 26.62 117.654 26.7333 117.694 26.84C117.747 26.9333 117.827 27.02 117.934 27.1C118.054 27.1666 118.167 27.2266 118.274 27.28C118.381 27.32 118.534 27.3666 118.734 27.42C118.934 27.46 119.107 27.5 119.254 27.54C119.401 27.5666 119.601 27.6066 119.854 27.66C120.107 27.7 120.307 27.7333 120.454 27.76C120.881 27.8533 121.227 27.94 121.494 28.02C121.774 28.0866 122.094 28.2066 122.454 28.38C122.814 28.54 123.094 28.7266 123.294 28.94C123.507 29.14 123.687 29.42 123.834 29.78C123.994 30.1266 124.074 30.5333 124.074 31C124.074 32.0133 123.674 32.82 122.874 33.42C122.087 34.0066 121.047 34.2999 119.754 34.2999Z" fill="#6870FE"/>
<path d="M39.1291 12.6991C39.1291 12.6457 39.1161 12.588 39.0988 12.5345V12.5138L35.7495 3.05372C35.6411 2.74489 35.294 2.56763 34.9641 2.65411L26.5298 4.82053L11.7129 0.537402H11.7041C11.6563 0.525049 11.6043 0.516718 11.5568 0.512695H11.5089C11.4699 0.512695 11.4351 0.516717 11.3961 0.525049C11.3788 0.525049 11.3658 0.529071 11.3482 0.53338C11.3395 0.53338 11.3265 0.53338 11.318 0.541711C11.2877 0.550042 11.2571 0.566418 11.2311 0.578771C11.2223 0.578771 11.2139 0.582793 11.2093 0.587103C11.166 0.611809 11.1225 0.640538 11.0834 0.6776C11.0834 0.6776 11.0746 0.6776 11.0746 0.685931L5.35189 5.96162C5.20874 6.09349 5.13489 6.28281 5.15669 6.47242L6.85307 21.4433L0.375211 30.4261C0.266866 30.5784 0.232055 30.768 0.288351 30.9449C0.340407 31.1219 0.479319 31.2661 0.657278 31.3402L15.0883 37.2339C15.1231 37.2463 15.1622 37.2586 15.1967 37.267H15.2097C15.253 37.2753 15.2965 37.2793 15.3398 37.2793H15.3658C15.4179 37.2793 15.47 37.267 15.5178 37.2546H15.5308L37.2246 30.978C37.5545 30.8832 37.7452 30.562 37.6671 30.2448L35.8927 23.0538L39.1035 12.8847V12.8683C39.1207 12.8149 39.1295 12.7571 39.1295 12.6994L39.1291 12.6991ZM25.5921 5.84591L18.5807 19.4121L12.5326 2.06421L25.5877 5.84091L25.5921 5.84591ZM6.47988 6.63681L11.2308 2.25889L17.5786 20.4665L8.10304 20.9526L6.47988 6.63681ZM14.3896 26.7558C14.3896 26.7558 14.3854 26.7722 14.3808 26.7765C14.3636 26.8136 14.346 26.8506 14.333 26.8877C14.333 26.896 14.3242 26.9084 14.3242 26.9164C14.3112 26.9659 14.307 27.0153 14.307 27.0647V27.073L14.6499 35.7057L1.88926 30.4958L7.87234 22.197L17.3177 21.7109L14.3848 26.7478L14.3896 26.7558ZM36.2616 29.9683L15.9609 35.8413L15.631 27.5549L34.7301 23.7699L36.2572 29.9684L36.2616 29.9683ZM34.7084 22.5101L16.2168 26.1756L18.9242 21.5216L37.4508 13.8118L34.7087 22.5056L34.7084 22.5101ZM19.8311 19.7961L26.9685 5.99094L34.7087 4.00176L37.6765 12.3749L19.831 19.8007L19.8311 19.7961Z" fill="#6870FE"/>
<path d="M19.3527 13.856C19.3527 14.0905 19.1527 14.2804 18.9057 14.2804C18.659 14.2804 18.459 14.0905 18.459 13.856C18.459 13.6219 18.659 13.432 18.9057 13.432C19.1527 13.432 19.3527 13.6219 19.3527 13.856Z" fill="#6870FE"/>
<path d="M33.7068 20.1824C33.954 20.1824 34.1538 19.9931 34.1538 19.7581C34.1538 19.5233 33.9543 19.3337 33.7068 19.3337C33.4595 19.3337 33.2598 19.5231 33.2598 19.7581C33.2598 19.9928 33.4592 20.1824 33.7068 20.1824Z" fill="#6870FE"/>
<path d="M28.9158 8.15186C28.6685 8.15186 28.4688 8.34118 28.4688 8.57617C28.4688 8.81089 28.6682 9.00049 28.9158 9.00049C29.163 9.00049 29.3628 8.81117 29.3628 8.57617C29.3628 8.34146 29.1633 8.15186 28.9158 8.15186Z" fill="#6870FE"/>
<path d="M12.5759 13.4316C12.8232 13.4316 13.0229 13.2423 13.0229 13.0073C13.0229 12.7726 12.8235 12.583 12.5759 12.583C12.3287 12.583 12.1289 12.7723 12.1289 13.0073C12.1289 13.242 12.3284 13.4316 12.5759 13.4316Z" fill="#6870FE"/>
<path d="M17.8611 28.8269C17.6138 28.8269 17.4141 29.0162 17.4141 29.2512C17.4141 29.4859 17.6135 29.6755 17.8611 29.6755C18.1083 29.6755 18.3081 29.4862 18.3081 29.2512C18.3081 29.0165 18.1086 28.8269 17.8611 28.8269Z" fill="#6870FE"/>
<path d="M25.2749 31.6193C25.2749 31.8534 25.0745 32.0433 24.8279 32.0433C24.5809 32.0433 24.3809 31.8534 24.3809 31.6193C24.3809 31.3848 24.5809 31.1949 24.8279 31.1949C25.0745 31.1949 25.2749 31.3848 25.2749 31.6193Z" fill="#6870FE"/>
<path d="M32.1301 12.2086C32.1301 12.5565 31.833 12.8386 31.4664 12.8386C31.0999 12.8386 30.8027 12.5565 30.8027 12.2086C30.8027 11.8607 31.0999 11.5786 31.4664 11.5786C31.833 11.5786 32.1301 11.8607 32.1301 12.2086Z" fill="#6870FE"/>
<path d="M16.0465 4.30518C15.6776 4.30518 15.3828 4.5893 15.3828 4.93519C15.3828 5.28108 15.6821 5.56521 16.0465 5.56521C16.4109 5.56521 16.7102 5.28108 16.7102 4.93519C16.7102 4.5893 16.4109 4.30518 16.0465 4.30518Z" fill="#6870FE"/>
<path d="M7.9819 26.2366C7.50039 26.2366 7.10547 26.6072 7.10547 27.0685C7.10547 27.5299 7.49589 27.9005 7.9819 27.9005C8.46795 27.9005 8.85833 27.5299 8.85833 27.0685C8.85833 26.6071 8.46791 26.2366 7.9819 26.2366Z" fill="#6870FE"/>
<path d="M30.5913 19.9396C31.0728 19.9396 31.4677 19.569 31.4677 19.1077C31.4677 18.6463 31.0773 18.2758 30.5913 18.2758C30.1052 18.2758 29.7148 18.6464 29.7148 19.1077C29.7148 19.5691 30.1053 19.9396 30.5913 19.9396Z" fill="#6870FE"/>
<path d="M33.7046 7.74451C33.223 7.74451 32.8281 8.11511 32.8281 8.57645C32.8281 9.03783 33.2185 9.40839 33.7046 9.40839C34.1906 9.40839 34.581 9.03779 34.581 8.57645C34.581 8.11507 34.1906 7.74451 33.7046 7.74451Z" fill="#6870FE"/>
<path d="M12.5712 30.289C12.5712 30.7483 12.1787 31.1209 11.6948 31.1209C11.2106 31.1209 10.8184 30.7483 10.8184 30.289C10.8184 29.8296 11.2106 29.457 11.6948 29.457C12.1787 29.457 12.5712 29.8296 12.5712 30.289Z" fill="#6870FE"/>
<path d="M32.6647 28.1967C32.6647 28.8247 32.1284 29.3335 31.4671 29.3335C30.8058 29.3335 30.2695 28.8247 30.2695 28.1967C30.2695 27.569 30.8058 27.0602 31.4671 27.0602C32.1284 27.0602 32.6647 27.569 32.6647 28.1967Z" fill="#6870FE"/>
<path d="M21.7484 8.57612C21.7484 9.20384 21.2124 9.71261 20.5511 9.71261C19.8895 9.71261 19.3535 9.20383 19.3535 8.57612C19.3535 7.94811 19.8895 7.43933 20.5511 7.43933C21.2124 7.43933 21.7484 7.94812 21.7484 8.57612Z" fill="#6870FE"/>
<path d="M25.6097 13.2506C24.946 13.2506 24.4121 13.7614 24.4121 14.3874C24.4121 15.0134 24.9502 15.5242 25.6097 15.5242C26.2692 15.5242 26.8073 15.0134 26.8073 14.3874C26.8073 13.7614 26.2692 13.2506 25.6097 13.2506Z" fill="#6870FE"/>
<path d="M9.49166 9.82795C9.97317 9.82795 10.3681 9.45735 10.3681 8.99601C10.3681 8.53463 9.97768 8.16406 9.49166 8.16406C9.00561 8.16406 8.61523 8.53466 8.61523 8.99601C8.61523 9.45738 9.00565 9.82795 9.49166 9.82795Z" fill="#6870FE"/>
<path d="M11.6949 15.516C11.6949 15.864 11.3977 16.1461 11.0309 16.1461C10.6644 16.1461 10.3672 15.864 10.3672 15.516C10.3672 15.1679 10.6644 14.8857 11.0309 14.8857C11.3977 14.8857 11.6949 15.1679 11.6949 15.516Z" fill="#6870FE"/>
<path d="M24.8297 22.3115C24.8297 22.6597 24.5325 22.9418 24.1657 22.9418C23.7992 22.9418 23.502 22.6597 23.502 22.3115C23.502 21.9636 23.7992 21.6815 24.1657 21.6815C24.5325 21.6815 24.8297 21.9636 24.8297 22.3115Z" fill="#6870FE"/>
<path d="M24.8297 28.8268C24.8297 29.1747 24.5325 29.4569 24.1657 29.4569C23.7992 29.4569 23.502 29.1747 23.502 28.8268C23.502 28.4786 23.7992 28.1965 24.1657 28.1965C24.5325 28.1965 24.8297 28.4786 24.8297 28.8268Z" fill="#6870FE"/>
<path d="M12.7926 25.0422C12.7926 25.3902 12.4954 25.6723 12.1286 25.6723C11.762 25.6723 11.4648 25.3902 11.4648 25.0422C11.4648 24.6943 11.762 24.4122 12.1286 24.4122C12.4954 24.4122 12.7926 24.6943 12.7926 25.0422Z" fill="#6870FE"/>
</svg>
