<svg width="125" height="42" viewBox="0 0 125 42" fill="none" xmlns="http://www.w3.org/2000/svg">
<path d="M51.8591 17L47.0391 2.69995H50.0791L52.5991 10.98L53.2191 13.26H53.2591C53.4857 12.3533 53.6924 11.5933 53.8791 10.98L56.3791 2.69995H59.3191L54.4991 17H51.8591Z" fill="white"/>
<path d="M63.6561 17.3C62.0028 17.3 60.7028 16.7933 59.7561 15.78C58.8094 14.7533 58.3361 13.4466 58.3361 11.86C58.3361 10.3266 58.8094 9.04662 59.7561 8.01995C60.7028 6.97995 61.9161 6.45995 63.3961 6.45995C65.0094 6.45995 66.2561 7.01995 67.1361 8.13995C68.0161 9.25995 68.4561 10.76 68.4561 12.64H61.0161C61.1228 13.4533 61.3961 14.0866 61.8361 14.54C62.2761 14.98 62.8761 15.2 63.6361 15.2C64.6361 15.2 65.2961 14.78 65.6161 13.94H68.2961C68.0961 14.9 67.5894 15.7 66.7761 16.34C65.9628 16.98 64.9228 17.3 63.6561 17.3ZM63.4361 8.55995C62.1161 8.55995 61.3228 9.29329 61.0561 10.76H65.6161C65.5761 10.1066 65.3561 9.57995 64.9561 9.17995C64.5561 8.76662 64.0494 8.55995 63.4361 8.55995Z" fill="white"/>
<path d="M72.335 6.73995V8.37995H72.395C72.715 7.77995 73.0683 7.33995 73.455 7.05995C73.8417 6.76662 74.3283 6.61995 74.915 6.61995C75.195 6.61995 75.4083 6.64662 75.555 6.69995V9.07995H75.495C74.575 8.98662 73.835 9.18662 73.275 9.67995C72.715 10.1733 72.435 10.9466 72.435 12V17H69.715V6.73995H72.335Z" fill="white"/>
<path d="M76.2244 8.53995V6.73995H77.6444V3.53995H80.3044V6.73995H82.0644V8.53995H80.3044V13.98C80.3044 14.66 80.6444 15 81.3244 15L82.1244 14.98V16.98C81.711 17.0066 81.1444 17.02 80.4244 17.02C79.6377 17.02 78.9777 16.8333 78.4444 16.46C77.911 16.0733 77.6444 15.44 77.6444 14.56V8.53995H76.2244Z" fill="white"/>
<path d="M83.465 17V6.73995H86.185V17H83.465ZM83.465 5.13995V2.69995H86.185V5.13995H83.465Z" fill="white"/>
<path d="M92.6977 17.3C91.111 17.3 89.8377 16.7866 88.8777 15.76C87.9177 14.7333 87.4377 13.44 87.4377 11.88C87.4377 10.32 87.9043 9.02662 88.8377 7.99995C89.7843 6.97328 91.0243 6.45995 92.5577 6.45995C93.851 6.45995 94.9043 6.79995 95.7177 7.47995C96.531 8.15995 97.031 9.07328 97.2177 10.22H94.5577C94.4643 9.75328 94.251 9.37328 93.9177 9.07995C93.5843 8.78662 93.171 8.63995 92.6777 8.63995C91.8777 8.63995 91.2643 8.92662 90.8377 9.49995C90.411 10.0733 90.1977 10.8666 90.1977 11.88C90.1977 12.88 90.4043 13.6733 90.8177 14.26C91.231 14.8333 91.8377 15.12 92.6377 15.12C93.8243 15.12 94.511 14.54 94.6977 13.38H97.3177C97.2243 14.5133 96.7643 15.4533 95.9377 16.2C95.111 16.9333 94.031 17.3 92.6977 17.3Z" fill="white"/>
<path d="M105.159 17C105.026 16.8266 104.919 16.4466 104.839 15.86H104.799C104.506 16.3 104.133 16.64 103.679 16.88C103.226 17.12 102.593 17.24 101.779 17.24C100.699 17.24 99.8327 16.9666 99.1794 16.42C98.526 15.8733 98.1994 15.1 98.1994 14.1C98.1994 13.06 98.5594 12.3 99.2794 11.82C99.9994 11.3266 101.013 10.9866 102.319 10.8C103.279 10.6666 103.933 10.5333 104.279 10.4C104.626 10.2533 104.799 9.99995 104.799 9.63995C104.799 9.26662 104.653 8.97328 104.359 8.75995C104.066 8.53328 103.639 8.41995 103.079 8.41995C101.839 8.41995 101.179 8.89995 101.099 9.85995H98.6794C98.7194 8.88662 99.1127 8.07995 99.8594 7.43995C100.606 6.79995 101.686 6.47995 103.099 6.47995C105.979 6.47995 107.419 7.73995 107.419 10.26V15.48C107.419 16.2533 107.539 16.7266 107.779 16.9V17H105.159ZM102.439 15.34C103.186 15.34 103.773 15.1466 104.199 14.76C104.639 14.3733 104.859 13.9133 104.859 13.38V11.84C104.566 12.0133 103.933 12.2133 102.959 12.44C102.186 12.6133 101.639 12.8133 101.319 13.04C100.999 13.2533 100.839 13.5866 100.839 14.04C100.839 14.9066 101.373 15.34 102.439 15.34Z" fill="white"/>
<path d="M109.189 17V2.69995H111.909V17H109.189Z" fill="white"/>
<path d="M51.8591 35L47.0391 20.7H50.0791L52.5991 28.98L53.2191 31.26H53.2591C53.4857 30.3533 53.6924 29.5933 53.8791 28.98L56.3791 20.7H59.3191L54.4991 35H51.8591Z" fill="white"/>
<path d="M63.6561 35.2999C62.0028 35.2999 60.7028 34.7933 59.7561 33.78C58.8094 32.7533 58.3361 31.4466 58.3361 29.86C58.3361 28.3266 58.8094 27.0466 59.7561 26.02C60.7028 24.98 61.9161 24.46 63.3961 24.46C65.0094 24.46 66.2561 25.02 67.1361 26.14C68.0161 27.26 68.4561 28.76 68.4561 30.64H61.0161C61.1228 31.4533 61.3961 32.0866 61.8361 32.54C62.2761 32.98 62.8761 33.2 63.6361 33.2C64.6361 33.2 65.2961 32.78 65.6161 31.94H68.2961C68.0961 32.9 67.5894 33.7 66.7761 34.34C65.9628 34.98 64.9228 35.2999 63.6561 35.2999ZM63.4361 26.56C62.1161 26.56 61.3228 27.2933 61.0561 28.76H65.6161C65.5761 28.1066 65.3561 27.58 64.9561 27.18C64.5561 26.7666 64.0494 26.56 63.4361 26.56Z" fill="white"/>
<path d="M72.375 24.74V26.14H72.435C73.1417 25.02 74.155 24.46 75.475 24.46C76.5283 24.46 77.3817 24.82 78.035 25.54C78.6883 26.2466 79.015 27.1666 79.015 28.3V35H76.295V28.7C76.295 28.14 76.135 27.6866 75.815 27.34C75.5083 26.9933 75.075 26.82 74.515 26.82C73.915 26.82 73.415 27.04 73.015 27.48C72.6283 27.92 72.435 28.4866 72.435 29.18V35H69.715V24.74H72.375Z" fill="white"/>
<path d="M79.8962 26.54V24.74H81.3162V21.54H83.9762V24.74H85.7362V26.54H83.9762V31.98C83.9762 32.66 84.3162 33 84.9963 33L85.7962 32.98V34.9799C85.3829 35.0066 84.8162 35.02 84.0962 35.02C83.3096 35.02 82.6496 34.8333 82.1162 34.46C81.5829 34.0733 81.3162 33.44 81.3162 32.56V26.54H79.8962Z" fill="white"/>
<path d="M96.2369 35H93.6169V33.8H93.5569C93.1835 34.3066 92.7702 34.6799 92.3169 34.9199C91.8769 35.1599 91.3102 35.2799 90.6169 35.2799C89.4969 35.2799 88.6235 34.9466 87.9969 34.28C87.3702 33.6133 87.0569 32.7133 87.0569 31.58V24.74H89.7569V31.12C89.7569 32.36 90.3235 32.98 91.4569 32.98C92.0835 32.98 92.5835 32.7666 92.9569 32.34C93.3302 31.9133 93.5169 31.3533 93.5169 30.66V24.74H96.2369V35Z" fill="white"/>
<path d="M100.616 24.74V26.38H100.676C100.996 25.78 101.35 25.34 101.736 25.06C102.123 24.7666 102.61 24.62 103.196 24.62C103.476 24.62 103.69 24.6466 103.836 24.7V27.08H103.776C102.856 26.9866 102.116 27.1866 101.556 27.68C100.996 28.1733 100.716 28.9466 100.716 30V35H97.9963V24.74H100.616Z" fill="white"/>
<path d="M109.535 35.2999C107.882 35.2999 106.582 34.7933 105.635 33.78C104.688 32.7533 104.215 31.4466 104.215 29.86C104.215 28.3266 104.688 27.0466 105.635 26.02C106.582 24.98 107.795 24.46 109.275 24.46C110.888 24.46 112.135 25.02 113.015 26.14C113.895 27.26 114.335 28.76 114.335 30.64H106.895C107.002 31.4533 107.275 32.0866 107.715 32.54C108.155 32.98 108.755 33.2 109.515 33.2C110.515 33.2 111.175 32.78 111.495 31.94H114.175C113.975 32.9 113.468 33.7 112.655 34.34C111.842 34.98 110.802 35.2999 109.535 35.2999ZM109.315 26.56C107.995 26.56 107.202 27.2933 106.935 28.76H111.495C111.455 28.1066 111.235 27.58 110.835 27.18C110.435 26.7666 109.928 26.56 109.315 26.56Z" fill="white"/>
<path d="M119.754 35.2999C118.287 35.2999 117.141 34.98 116.314 34.34C115.487 33.6866 115.034 32.8 114.954 31.68H117.474C117.647 32.8133 118.394 33.38 119.714 33.38C120.314 33.38 120.774 33.2733 121.094 33.06C121.427 32.8466 121.594 32.56 121.594 32.2C121.594 32.0666 121.567 31.9466 121.514 31.84C121.474 31.7333 121.394 31.64 121.274 31.56C121.167 31.4666 121.067 31.3933 120.974 31.34C120.894 31.2866 120.747 31.2333 120.534 31.18C120.321 31.1266 120.154 31.0866 120.034 31.06C119.927 31.0333 119.734 31 119.454 30.96C119.187 30.9066 119.001 30.8666 118.894 30.84C118.334 30.7333 117.874 30.6266 117.514 30.52C117.167 30.4 116.801 30.2333 116.414 30.02C116.027 29.7933 115.734 29.4933 115.534 29.12C115.347 28.7333 115.254 28.2733 115.254 27.74C115.254 26.6733 115.641 25.86 116.414 25.3C117.201 24.74 118.207 24.46 119.434 24.46C120.754 24.46 121.787 24.7666 122.534 25.38C123.294 25.98 123.727 26.8066 123.834 27.86H121.374C121.267 26.86 120.607 26.36 119.394 26.36C118.847 26.36 118.414 26.46 118.094 26.66C117.787 26.86 117.634 27.14 117.634 27.5C117.634 27.62 117.654 27.7333 117.694 27.84C117.747 27.9333 117.827 28.02 117.934 28.1C118.054 28.1666 118.167 28.2266 118.274 28.28C118.381 28.32 118.534 28.3666 118.734 28.42C118.934 28.46 119.107 28.5 119.254 28.54C119.401 28.5666 119.601 28.6066 119.854 28.66C120.107 28.7 120.307 28.7333 120.454 28.76C120.881 28.8533 121.227 28.94 121.494 29.02C121.774 29.0866 122.094 29.2066 122.454 29.38C122.814 29.54 123.094 29.7266 123.294 29.94C123.507 30.14 123.687 30.42 123.834 30.78C123.994 31.1266 124.074 31.5333 124.074 32C124.074 33.0133 123.674 33.82 122.874 34.42C122.087 35.0066 121.047 35.2999 119.754 35.2999Z" fill="white"/>
<path d="M42.1395 14.0998C42.1395 14.0391 42.1255 13.9736 42.1069 13.9129V13.8895L38.4981 3.15157C38.3814 2.80103 38.0073 2.59983 37.6519 2.69798L28.5644 5.15702L12.5999 0.295378H12.5904C12.5389 0.281356 12.4828 0.271899 12.4316 0.267334H12.3801C12.338 0.267334 12.3005 0.271899 12.2585 0.281356C12.2399 0.281356 12.2258 0.285921 12.2069 0.290812C12.1975 0.290812 12.1835 0.290813 12.1743 0.300269C12.1417 0.309726 12.1088 0.328313 12.0807 0.342335C12.0713 0.342335 12.0621 0.3469 12.0573 0.351791C12.0106 0.379835 11.9637 0.412444 11.9216 0.454512C11.9216 0.454512 11.9121 0.454512 11.9121 0.463969L5.74614 6.45224C5.5919 6.60192 5.51234 6.81681 5.53582 7.03203L7.36359 24.025L0.384002 34.2211C0.267265 34.3939 0.229758 34.6092 0.290413 34.81C0.346501 35.0109 0.496173 35.1746 0.687915 35.2587L16.2367 41.9485C16.2742 41.9625 16.3163 41.9765 16.3534 41.986H16.3675C16.4141 41.9954 16.461 42 16.5077 42H16.5357C16.5918 42 16.6479 41.986 16.6994 41.972H16.7134L40.0875 34.8475C40.443 34.7399 40.6484 34.3754 40.5643 34.0153L38.6524 25.853L42.1119 14.3104V14.2918C42.1305 14.2312 42.1399 14.1656 42.1399 14.1001L42.1395 14.0998ZM27.5541 6.3209L19.9996 21.7194L13.483 2.02841L27.5492 6.31522L27.5541 6.3209ZM6.9615 7.21863L12.0804 2.24938L18.9198 22.9163L8.71038 23.468L6.9615 7.21863ZM15.4839 30.0551C15.4839 30.0551 15.4793 30.0737 15.4744 30.0786C15.4558 30.1207 15.4369 30.1627 15.4229 30.2048C15.4229 30.2142 15.4134 30.2283 15.4134 30.2374C15.3994 30.2935 15.3948 30.3496 15.3948 30.4057V30.4151L15.7643 40.2139L2.01532 34.3002L8.46181 24.8805L18.6387 24.3287L15.4786 30.046L15.4839 30.0551ZM39.05 33.7015L17.1768 40.3677L16.8214 30.9621L37.3998 26.6659L39.0452 33.7016L39.05 33.7015ZM37.3765 25.2359L17.4525 29.3965L20.3697 24.1138L40.3312 15.3627L37.3768 25.2308L37.3765 25.2359ZM21.3468 22.1553L29.037 6.48552L37.3767 4.22766L40.5744 13.7317L21.3467 22.1606L21.3468 22.1553Z" fill="#00DDDE"/>
<path d="M20.8321 15.4129C20.8321 15.679 20.6165 15.8946 20.3504 15.8946C20.0847 15.8946 19.8691 15.679 19.8691 15.4129C19.8691 15.1472 20.0847 14.9316 20.3504 14.9316C20.6165 14.9316 20.8321 15.1472 20.8321 15.4129Z" fill="#00DDDE"/>
<path d="M36.298 22.5939C36.5645 22.5939 36.7797 22.379 36.7797 22.1122C36.7797 21.8458 36.5648 21.6306 36.298 21.6306C36.0316 21.6306 35.8164 21.8455 35.8164 22.1122C35.8164 22.3787 36.0313 22.5939 36.298 22.5939Z" fill="#00DDDE"/>
<path d="M31.1359 8.93823C30.8695 8.93823 30.6543 9.15312 30.6543 9.41986C30.6543 9.68628 30.8692 9.9015 31.1359 9.9015C31.4023 9.9015 31.6176 9.6866 31.6176 9.41986C31.6176 9.15345 31.4027 8.93823 31.1359 8.93823Z" fill="#00DDDE"/>
<path d="M13.5305 14.9313C13.7969 14.9313 14.0121 14.7164 14.0121 14.4496C14.0121 14.1832 13.7972 13.968 13.5305 13.968C13.264 13.968 13.0488 14.1829 13.0488 14.4496C13.0488 14.7161 13.2637 14.9313 13.5305 14.9313Z" fill="#00DDDE"/>
<path d="M19.2238 32.4059C18.9574 32.4059 18.7422 32.6208 18.7422 32.8875C18.7422 33.1539 18.9571 33.3691 19.2238 33.3691C19.4902 33.3691 19.7055 33.1543 19.7055 32.8875C19.7055 32.6211 19.4906 32.4059 19.2238 32.4059Z" fill="#00DDDE"/>
<path d="M27.2113 35.5755C27.2113 35.8413 26.9954 36.0568 26.7297 36.0568C26.4636 36.0568 26.248 35.8413 26.248 35.5755C26.248 35.3094 26.4636 35.0939 26.7297 35.0939C26.9954 35.0939 27.2113 35.3094 27.2113 35.5755Z" fill="#00DDDE"/>
<path d="M34.5982 13.543C34.5982 13.9379 34.278 14.2581 33.8831 14.2581C33.4882 14.2581 33.168 13.9379 33.168 13.543C33.168 13.1481 33.4882 12.8279 33.8831 12.8279C34.278 12.8279 34.5982 13.1481 34.5982 13.543Z" fill="#00DDDE"/>
<path d="M17.2698 4.57202C16.8723 4.57202 16.5547 4.89453 16.5547 5.28714C16.5547 5.67975 16.8772 6.00225 17.2698 6.00225C17.6624 6.00225 17.9849 5.67975 17.9849 5.28714C17.9849 4.89453 17.6624 4.57202 17.2698 4.57202Z" fill="#00DDDE"/>
<path d="M8.57908 29.4658C8.06027 29.4658 7.63477 29.8865 7.63477 30.4101C7.63477 30.9338 8.05542 31.3544 8.57908 31.3544C9.10277 31.3544 9.52339 30.9338 9.52339 30.4101C9.52339 29.8864 9.10273 29.4658 8.57908 29.4658Z" fill="#00DDDE"/>
<path d="M32.9404 22.3182C33.4592 22.3182 33.8847 21.8975 33.8847 21.3739C33.8847 20.8502 33.4641 20.4296 32.9404 20.4296C32.4167 20.4296 31.9961 20.8502 31.9961 21.3739C31.9961 21.8976 32.4168 22.3182 32.9404 22.3182Z" fill="#00DDDE"/>
<path d="M36.2939 8.47595C35.7751 8.47595 35.3496 8.89661 35.3496 9.42027C35.3496 9.94396 35.7703 10.3646 36.2939 10.3646C36.8176 10.3646 37.2382 9.94392 37.2382 9.42027C37.2382 8.89657 36.8176 8.47595 36.2939 8.47595Z" fill="#00DDDE"/>
<path d="M13.5253 34.0655C13.5253 34.5869 13.1024 35.0098 12.581 35.0098C12.0593 35.0098 11.6367 34.5869 11.6367 34.0655C11.6367 33.5442 12.0593 33.1212 12.581 33.1212C13.1024 33.1212 13.5253 33.5442 13.5253 34.0655Z" fill="#00DDDE"/>
<path d="M35.1744 31.6905C35.1744 32.4033 34.5966 32.9808 33.8841 32.9808C33.1716 32.9808 32.5938 32.4033 32.5938 31.6905C32.5938 30.978 33.1716 30.4005 33.8841 30.4005C34.5966 30.4005 35.1744 30.978 35.1744 31.6905Z" fill="#00DDDE"/>
<path d="M23.4124 9.41985C23.4124 10.1324 22.8349 10.7098 22.1224 10.7098C21.4095 10.7098 20.832 10.1323 20.832 9.41985C20.832 8.70702 21.4095 8.12952 22.1224 8.12952C22.8349 8.12952 23.4124 8.70702 23.4124 9.41985Z" fill="#00DDDE"/>
<path d="M27.5735 14.7257C26.8584 14.7257 26.2832 15.3055 26.2832 16.016C26.2832 16.7266 26.863 17.3064 27.5735 17.3064C28.2841 17.3064 28.8639 16.7266 28.8639 16.016C28.8639 15.3055 28.2841 14.7257 27.5735 14.7257Z" fill="#00DDDE"/>
<path d="M10.206 10.8408C10.7248 10.8408 11.1503 10.4201 11.1503 9.89646C11.1503 9.37276 10.7297 8.95215 10.206 8.95215C9.68234 8.95215 9.26172 9.37281 9.26172 9.89646C9.26172 10.4202 9.68238 10.8408 10.206 10.8408Z" fill="#00DDDE"/>
<path d="M12.5809 17.2971C12.5809 17.692 12.2607 18.0122 11.8655 18.0122C11.4706 18.0122 11.1504 17.692 11.1504 17.2971C11.1504 16.9019 11.4706 16.5817 11.8655 16.5817C12.2607 16.5817 12.5809 16.9019 12.5809 17.2971Z" fill="#00DDDE"/>
<path d="M26.7333 25.0105C26.7333 25.4057 26.4131 25.726 26.0178 25.726C25.623 25.726 25.3027 25.4057 25.3027 25.0105C25.3027 24.6156 25.623 24.2954 26.0178 24.2954C26.4131 24.2954 26.7333 24.6156 26.7333 25.0105Z" fill="#00DDDE"/>
<path d="M26.7333 32.4059C26.7333 32.8008 26.4131 33.121 26.0178 33.121C25.623 33.121 25.3027 32.8008 25.3027 32.4059C25.3027 32.0106 25.623 31.6904 26.0178 31.6904C26.4131 31.6904 26.7333 32.0106 26.7333 32.4059Z" fill="#00DDDE"/>
<path d="M13.7626 28.11C13.7626 28.5049 13.4424 28.8251 13.0471 28.8251C12.6522 28.8251 12.332 28.5049 12.332 28.11C12.332 27.7151 12.6522 27.3949 13.0471 27.3949C13.4424 27.3949 13.7626 27.7151 13.7626 28.11Z" fill="#00DDDE"/>
</svg>
