<svg width="107" height="31" viewBox="0 0 107 31" fill="none" xmlns="http://www.w3.org/2000/svg">
<path d="M7.312 20.216C7.21464 19.9105 7.08371 19.6369 6.91921 19.3952C6.75806 19.1501 6.56502 18.942 6.34009 18.7708C6.11516 18.5962 5.85833 18.4636 5.56961 18.3729C5.28425 18.2823 4.97035 18.237 4.62791 18.237C4.04712 18.237 3.52339 18.3864 3.05674 18.6851C2.59009 18.9839 2.22079 19.4221 1.94886 19.9995C1.68028 20.5736 1.54599 21.2769 1.54599 22.1095C1.54599 22.9454 1.68196 23.6521 1.9539 24.2296C2.22583 24.807 2.59848 25.2451 3.07185 25.5439C3.54521 25.8427 4.08404 25.9921 4.68834 25.9921C5.249 25.9921 5.73747 25.878 6.15376 25.6497C6.57342 25.4214 6.89739 25.0991 7.12568 24.6828C7.35732 24.2631 7.47315 23.7696 7.47315 23.2023L7.87601 23.2778H4.92503V21.9937H8.97886V23.167C8.97886 24.0332 8.79421 24.7852 8.42492 25.4231C8.05898 26.0576 7.55204 26.5477 6.9041 26.8935C6.25952 27.2393 5.52093 27.4122 4.68834 27.4122C3.75504 27.4122 2.93588 27.1973 2.23087 26.7676C1.52921 26.3379 0.981984 25.7286 0.58919 24.9396C0.196397 24.1473 0 23.2073 0 22.1196C0 21.2971 0.114145 20.5585 0.342435 19.9038C0.570726 19.2492 0.891339 18.6935 1.30428 18.237C1.72057 17.777 2.20904 17.4262 2.7697 17.1845C3.33371 16.9394 3.94976 16.8169 4.61784 16.8169C5.17514 16.8169 5.69383 16.8991 6.17391 17.0636C6.65735 17.2281 7.08707 17.4614 7.46308 17.7636C7.84244 18.0657 8.15634 18.425 8.40477 18.8413C8.65321 19.2542 8.82107 19.7124 8.90836 20.216H7.312Z" fill="white"/>
<path d="M14.0915 27.4273C13.3663 27.4273 12.7335 27.2611 12.193 26.9288C11.6525 26.5964 11.2328 26.1314 10.934 25.5338C10.6352 24.9363 10.4858 24.238 10.4858 23.439C10.4858 22.6366 10.6352 21.9349 10.934 21.334C11.2328 20.733 11.6525 20.2664 12.193 19.934C12.7335 19.6017 13.3663 19.4355 14.0915 19.4355C14.8166 19.4355 15.4495 19.6017 15.99 19.934C16.5305 20.2664 16.9501 20.733 17.2489 21.334C17.5477 21.9349 17.6971 22.6366 17.6971 23.439C17.6971 24.238 17.5477 24.9363 17.2489 25.5338C16.9501 26.1314 16.5305 26.5964 15.99 26.9288C15.4495 27.2611 14.8166 27.4273 14.0915 27.4273ZM14.0965 26.1633C14.5665 26.1633 14.9559 26.0391 15.2648 25.7907C15.5737 25.5422 15.802 25.2116 15.9497 24.7986C16.1008 24.3857 16.1763 23.9308 16.1763 23.4339C16.1763 22.9404 16.1008 22.4872 15.9497 22.0742C15.802 21.658 15.5737 21.3239 15.2648 21.0721C14.9559 20.8203 14.5665 20.6944 14.0965 20.6944C13.6231 20.6944 13.2303 20.8203 12.9181 21.0721C12.6093 21.3239 12.3793 21.658 12.2282 22.0742C12.0805 22.4872 12.0066 22.9404 12.0066 23.4339C12.0066 23.9308 12.0805 24.3857 12.2282 24.7986C12.3793 25.2116 12.6093 25.5422 12.9181 25.7907C13.2303 26.0391 13.6231 26.1633 14.0965 26.1633Z" fill="white"/>
<path d="M22.636 27.4273C21.9108 27.4273 21.278 27.2611 20.7375 26.9288C20.197 26.5964 19.7773 26.1314 19.4785 25.5338C19.1797 24.9363 19.0303 24.238 19.0303 23.439C19.0303 22.6366 19.1797 21.9349 19.4785 21.334C19.7773 20.733 20.197 20.2664 20.7375 19.934C21.278 19.6017 21.9108 19.4355 22.636 19.4355C23.3611 19.4355 23.994 19.6017 24.5345 19.934C25.075 20.2664 25.4946 20.733 25.7934 21.334C26.0922 21.9349 26.2416 22.6366 26.2416 23.439C26.2416 24.238 26.0922 24.9363 25.7934 25.5338C25.4946 26.1314 25.075 26.5964 24.5345 26.9288C23.994 27.2611 23.3611 27.4273 22.636 27.4273ZM22.641 26.1633C23.111 26.1633 23.5005 26.0391 23.8093 25.7907C24.1182 25.5422 24.3465 25.2116 24.4942 24.7986C24.6453 24.3857 24.7208 23.9308 24.7208 23.4339C24.7208 22.9404 24.6453 22.4872 24.4942 22.0742C24.3465 21.658 24.1182 21.3239 23.8093 21.0721C23.5005 20.8203 23.111 20.6944 22.641 20.6944C22.1677 20.6944 21.7749 20.8203 21.4626 21.0721C21.1538 21.3239 20.9238 21.658 20.7727 22.0742C20.625 22.4872 20.5512 22.9404 20.5512 23.4339C20.5512 23.9308 20.625 24.3857 20.7727 24.7986C20.9238 25.2116 21.1538 25.5422 21.4626 25.7907C21.7749 26.0391 22.1677 26.1633 22.641 26.1633Z" fill="white"/>
<path d="M31.1654 30.333C30.551 30.333 30.0223 30.2524 29.5791 30.0913C29.1393 29.9301 28.7801 29.7169 28.5014 29.4517C28.2228 29.1865 28.0147 28.8961 27.877 28.5805L29.1712 28.0467C29.2619 28.1944 29.3827 28.3505 29.5338 28.5151C29.6882 28.6829 29.8964 28.8256 30.1582 28.9431C30.4234 29.0606 30.7642 29.1193 31.1805 29.1193C31.7512 29.1193 32.2229 28.98 32.5956 28.7014C32.9682 28.4261 33.1545 27.9863 33.1545 27.382V25.8612H33.0589C32.9682 26.0257 32.8373 26.2086 32.6661 26.4101C32.4982 26.6115 32.2666 26.7861 31.9711 26.9338C31.6757 27.0815 31.2913 27.1554 30.8179 27.1554C30.2069 27.1554 29.6563 27.0127 29.1662 26.7273C28.6794 26.4386 28.2933 26.0139 28.0079 25.4533C27.7259 24.8893 27.5849 24.196 27.5849 23.3735C27.5849 22.551 27.7243 21.846 28.0029 21.2584C28.2849 20.6709 28.671 20.2211 29.1611 19.9088C29.6513 19.5933 30.2069 19.4355 30.828 19.4355C31.3081 19.4355 31.6958 19.5161 31.9913 19.6772C32.2867 19.835 32.5167 20.0196 32.6812 20.2311C32.849 20.4426 32.9783 20.629 33.0689 20.7901H33.1797V19.5362H34.6552V27.4424C34.6552 28.1072 34.5008 28.6527 34.1919 29.0791C33.8831 29.5054 33.4651 29.821 32.938 30.0258C32.4143 30.2306 31.8234 30.333 31.1654 30.333ZM31.1503 25.9065C31.5834 25.9065 31.9493 25.8058 32.2481 25.6044C32.5502 25.3996 32.7785 25.1075 32.933 24.7281C33.0908 24.3454 33.1696 23.8871 33.1696 23.3533C33.1696 22.833 33.0924 22.3747 32.938 21.9786C32.7836 21.5824 32.557 21.2736 32.2582 21.052C31.9594 20.827 31.5901 20.7146 31.1503 20.7146C30.6971 20.7146 30.3194 20.8321 30.0172 21.0671C29.7151 21.2987 29.4868 21.6143 29.3324 22.0138C29.1813 22.4133 29.1057 22.8598 29.1057 23.3533C29.1057 23.8603 29.183 24.3051 29.3374 24.6878C29.4918 25.0706 29.7201 25.3693 30.0223 25.5842C30.3278 25.7991 30.7038 25.9065 31.1503 25.9065Z" fill="white"/>
<path d="M38.1803 16.9579V27.2712H36.6746V16.9579H38.1803Z" fill="white"/>
<path d="M43.5396 27.4273C42.7776 27.4273 42.1212 27.2645 41.5706 26.9388C41.0234 26.6098 40.6004 26.1482 40.3016 25.554C40.0062 24.9564 39.8585 24.2564 39.8585 23.4541C39.8585 22.6618 40.0062 21.9635 40.3016 21.3592C40.6004 20.7549 41.0167 20.2832 41.5505 19.9441C42.0877 19.605 42.7155 19.4355 43.4339 19.4355C43.8703 19.4355 44.2933 19.5077 44.7029 19.652C45.1125 19.7964 45.4801 20.023 45.8058 20.3319C46.1314 20.6407 46.3882 21.0419 46.5762 21.5354C46.7642 22.0256 46.8582 22.6215 46.8582 23.3231V23.8569H40.7095V22.7289H45.3828C45.3828 22.3328 45.3022 21.9819 45.141 21.6764C44.9799 21.3676 44.7533 21.1242 44.4612 20.9462C44.1725 20.7683 43.8334 20.6793 43.444 20.6793C43.021 20.6793 42.6517 20.7834 42.3361 20.9915C42.0239 21.1963 41.7822 21.4649 41.6109 21.7973C41.4431 22.1263 41.3591 22.4838 41.3591 22.8699V23.7512C41.3591 24.2682 41.4498 24.708 41.6311 25.0706C41.8157 25.4331 42.0725 25.7101 42.4016 25.9015C42.7306 26.0895 43.115 26.1835 43.5548 26.1835C43.8401 26.1835 44.1003 26.1432 44.3353 26.0626C44.5703 25.9787 44.7734 25.8545 44.9446 25.69C45.1159 25.5255 45.2468 25.3223 45.3374 25.0806L46.7626 25.3375C46.6484 25.7571 46.4436 26.1247 46.1482 26.4403C45.8561 26.7525 45.4885 26.9959 45.0454 27.1705C44.6056 27.3417 44.1037 27.4273 43.5396 27.4273Z" fill="white"/>
<path d="M52.4027 27.2712V16.9579H56.0788C56.8778 16.9579 57.5409 17.0955 58.068 17.3708C58.5984 17.6461 58.9946 18.0271 59.2564 18.5139C59.5183 18.9974 59.6492 19.5563 59.6492 20.1909C59.6492 20.822 59.5166 21.3776 59.2514 21.8577C58.9895 22.3344 58.5934 22.7054 58.0629 22.9706C57.5359 23.2358 56.8728 23.3685 56.0738 23.3685H53.289V22.0289H55.9328C56.4364 22.0289 56.8459 21.9567 57.1615 21.8124C57.4805 21.668 57.7138 21.4582 57.8615 21.1829C58.0092 20.9076 58.0831 20.5769 58.0831 20.1909C58.0831 19.8014 58.0075 19.464 57.8565 19.1787C57.7088 18.8933 57.4754 18.6751 57.1565 18.524C56.8409 18.3696 56.4263 18.2923 55.9126 18.2923H53.9588V27.2712H52.4027ZM57.4939 22.6181L60.042 27.2712H58.2694L55.7716 22.6181H57.4939Z" fill="white"/>
<path d="M64.6586 27.4273C63.8965 27.4273 63.2402 27.2645 62.6896 26.9388C62.1424 26.6098 61.7194 26.1482 61.4206 25.554C61.1251 24.9564 60.9774 24.2564 60.9774 23.4541C60.9774 22.6618 61.1251 21.9635 61.4206 21.3592C61.7194 20.7549 62.1357 20.2832 62.6694 19.9441C63.2066 19.605 63.8344 19.4355 64.5528 19.4355C64.9893 19.4355 65.4123 19.5077 65.8219 19.652C66.2314 19.7964 66.5991 20.023 66.9247 20.3319C67.2504 20.6407 67.5072 21.0419 67.6952 21.5354C67.8832 22.0256 67.9772 22.6215 67.9772 23.3231V23.8569H61.8285V22.7289H66.5017C66.5017 22.3328 66.4211 21.9819 66.26 21.6764C66.0988 21.3676 65.8722 21.1242 65.5801 20.9462C65.2914 20.7683 64.9524 20.6793 64.5629 20.6793C64.1399 20.6793 63.7706 20.7834 63.455 20.9915C63.1428 21.1963 62.9011 21.4649 62.7299 21.7973C62.562 22.1263 62.4781 22.4838 62.4781 22.8699V23.7512C62.4781 24.2682 62.5687 24.708 62.75 25.0706C62.9347 25.4331 63.1915 25.7101 63.5205 25.9015C63.8495 26.0895 64.2339 26.1835 64.6737 26.1835C64.9591 26.1835 65.2192 26.1432 65.4543 26.0626C65.6893 25.9787 65.8924 25.8545 66.0636 25.69C66.2348 25.5255 66.3657 25.3223 66.4564 25.0806L67.8815 25.3375C67.7674 25.7571 67.5626 26.1247 67.2671 26.4403C66.9751 26.7525 66.6075 26.9959 66.1643 27.1705C65.7245 27.3417 65.2226 27.4273 64.6586 27.4273Z" fill="white"/>
<path d="M76.0433 19.5362L73.2384 27.2712H71.6269L68.8169 19.5362H70.4334L72.3923 25.4885H72.4729L74.4268 19.5362H76.0433Z" fill="white"/>
<path d="M77.4584 27.2712V19.5362H78.9641V27.2712H77.4584ZM78.2188 18.3427C77.9569 18.3427 77.732 18.2554 77.544 18.0808C77.3593 17.9029 77.267 17.6914 77.267 17.4463C77.267 17.1979 77.3593 16.9864 77.544 16.8118C77.732 16.6339 77.9569 16.5449 78.2188 16.5449C78.4806 16.5449 78.7039 16.6339 78.8885 16.8118C79.0765 16.9864 79.1705 17.1979 79.1705 17.4463C79.1705 17.6914 79.0765 17.9029 78.8885 18.0808C78.7039 18.2554 78.4806 18.3427 78.2188 18.3427Z" fill="white"/>
<path d="M84.3234 27.4273C83.5614 27.4273 82.905 27.2645 82.3544 26.9388C81.8072 26.6098 81.3842 26.1482 81.0854 25.554C80.79 24.9564 80.6423 24.2564 80.6423 23.4541C80.6423 22.6618 80.79 21.9635 81.0854 21.3592C81.3842 20.7549 81.8005 20.2832 82.3343 19.9441C82.8714 19.605 83.4992 19.4355 84.2177 19.4355C84.6541 19.4355 85.0771 19.5077 85.4867 19.652C85.8963 19.7964 86.2639 20.023 86.5896 20.3319C86.9152 20.6407 87.172 21.0419 87.36 21.5354C87.548 22.0256 87.642 22.6215 87.642 23.3231V23.8569H81.4933V22.7289H86.1665C86.1665 22.3328 86.086 21.9819 85.9248 21.6764C85.7637 21.3676 85.5371 21.1242 85.245 20.9462C84.9563 20.7683 84.6172 20.6793 84.2278 20.6793C83.8048 20.6793 83.4355 20.7834 83.1199 20.9915C82.8077 21.1963 82.5659 21.4649 82.3947 21.7973C82.2269 22.1263 82.1429 22.4838 82.1429 22.8699V23.7512C82.1429 24.2682 82.2336 24.708 82.4149 25.0706C82.5995 25.4331 82.8563 25.7101 83.1853 25.9015C83.5144 26.0895 83.8988 26.1835 84.3385 26.1835C84.6239 26.1835 84.8841 26.1432 85.1191 26.0626C85.3541 25.9787 85.5572 25.8545 85.7284 25.69C85.8997 25.5255 86.0306 25.3223 86.1212 25.0806L87.5464 25.3375C87.4322 25.7571 87.2274 26.1247 86.932 26.4403C86.6399 26.7525 86.2723 26.9959 85.8292 27.1705C85.3894 27.3417 84.8875 27.4273 84.3234 27.4273Z" fill="white"/>
<path d="M90.9758 27.2712L88.6996 19.5362H90.2556L91.7714 25.2166H91.847L93.3678 19.5362H94.9238L96.4346 25.1914H96.5101L98.0158 19.5362H99.5719L97.3007 27.2712H95.7648L94.1936 21.6865H94.0778L92.5066 27.2712H90.9758Z" fill="white"/>
<path d="M106.797 21.4246L105.432 21.6663C105.375 21.4918 105.285 21.3256 105.16 21.1678C105.04 21.01 104.875 20.8808 104.667 20.78C104.459 20.6793 104.199 20.629 103.886 20.629C103.46 20.629 103.104 20.7246 102.819 20.916C102.533 21.104 102.391 21.3474 102.391 21.6462C102.391 21.9047 102.486 22.1129 102.678 22.2706C102.869 22.4284 103.178 22.5577 103.604 22.6584L104.833 22.9404C105.545 23.1049 106.075 23.3584 106.424 23.7008C106.774 24.0432 106.948 24.4881 106.948 25.0353C106.948 25.4986 106.814 25.9115 106.545 26.2741C106.28 26.6333 105.909 26.9153 105.432 27.1201C104.959 27.3249 104.41 27.4273 103.786 27.4273C102.919 27.4273 102.213 27.2427 101.666 26.8734C101.118 26.5007 100.783 25.972 100.658 25.2871L102.114 25.0655C102.204 25.4449 102.391 25.7319 102.673 25.9266C102.955 26.118 103.322 26.2137 103.776 26.2137C104.269 26.2137 104.664 26.1113 104.959 25.9065C105.254 25.6984 105.402 25.4449 105.402 25.1461C105.402 24.9044 105.311 24.7013 105.13 24.5368C104.952 24.3723 104.679 24.248 104.309 24.1641L103 23.8771C102.278 23.7126 101.744 23.4507 101.399 23.0915C101.056 22.7323 100.885 22.2774 100.885 21.7268C100.885 21.2702 101.013 20.8707 101.268 20.5283C101.523 20.1858 101.875 19.9189 102.325 19.7276C102.775 19.5328 103.29 19.4355 103.871 19.4355C104.707 19.4355 105.365 19.6168 105.845 19.9793C106.325 20.3386 106.643 20.8203 106.797 21.4246Z" fill="white"/>
<path d="M52.7619 0L54.2279 4.50999L58.9768 4.51367L55.1382 7.30362L56.6043 11.8174L52.7619 9.03011L48.9232 11.8174L50.3893 7.30362L46.5469 4.51367H51.2926" fill="#E69C24"/>
<path d="M66.59 0L65.1223 4.50999L60.375 4.51419L64.2116 7.30254L62.7487 11.8168L66.59 9.02849L70.4266 11.8168L68.9636 7.30254L72.805 4.51419H68.0618M66.5905 1.38157L67.7474 4.94044H71.4848L68.4591 7.13725L69.616 10.6919L66.5904 8.49514" fill="#E69C24"/>
<path d="M80.4201 0L78.954 4.50999L74.2051 4.51367L78.0437 7.30362L76.5777 11.8174L80.4201 9.03011L84.2587 11.8174L82.7926 7.30362L86.635 4.51367H81.8893M80.4195 1.38521L81.5759 4.94408H85.3132L82.2876 7.14143L83.444 10.6961L80.4183 8.49878L77.3927 10.6961L78.549 7.14143L75.5234 4.94408H79.2607" fill="#E69C24"/>
<path d="M38.9415 0L40.4076 4.50999L45.1565 4.51367L41.3179 7.30362L42.7839 11.8174L38.9415 9.03011L35.1029 11.8174L36.569 7.30362L32.7266 4.51367H37.4723" fill="#E69C24"/>
<path d="M25.1232 0L26.5892 4.50999L31.3382 4.51367L27.4995 7.30362L28.9656 11.8174L25.1232 9.03011L21.2845 11.8174L22.7506 7.30362L18.9082 4.51367H23.6539" fill="#E69C24"/>
</svg>
